<?xml version="1.0" encoding="UTF-8"?>
<svg version="1.1" viewBox="0 0 1600 1280" width="1280" height="1280" xmlns="http://www.w3.org/2000/svg">
<path transform="translate(517 408)" d="m0 0c0.78-9.57e-4 1.56-0.00191 2.36-0.0029 1.64-6.75e-4 3.28 0.00113 4.91 0.00534 2.47 0.00534 4.94 4.36e-5 7.4-0.00635 17.3-0.00916 30.5 0.0754 44.1 11.9 2.97 2.54 6.07 4.82 9.27 7.06 0.675 0.59 0.675 0.59 1.36 1.19v2c0.589 0.251 1.18 0.503 1.79 0.762 8.34 4.66 11.3 14.8 14.2 23.2 0.7 1.69 1.41 3.38 2.12 5.06 2.21 5.52 3.54 11.2 4.88 16.9 0.322 1.35 0.645 2.7 0.969 4.05 0.344 1.44 0.688 2.88 1.03 4.32 0.231 0.97 0.231 0.97 0.467 1.96 0.33 1.4 0.651 2.81 0.965 4.22 0.4 1.72 0.841 3.44 1.31 5.14 2.9 11.5 3.07 23.1 3.54 34.8 0.244 6.05 0.52 12.1 0.799 18.1 0.0647 1.4 0.129 2.81 0.193 4.21 0.727 15.9 1.69 31.8 2.72 47.7 0.133 2.06 0.264 4.12 0.395 6.19 0.246 3.86 0.495 7.72 0.746 11.6 0.0728 1.13 0.146 2.27 0.221 3.43-0.295 10.7-0.295 10.7 2.65 20.2 0.239 3.09 0.414 6.15 0.543 9.25 0.0418 0.946 0.0836 1.89 0.127 2.87 0.417 9.98 0.556 20 0.647 30 0.0208 1.99 0.0419 3.97 0.0632 5.96 0.0553 5.28 0.105 10.6 0.153 15.8 0.03 3.28 0.0614 6.57 0.093 9.85 0.278 29 0.478 58 0.497 87.1 0.00206 2.41 0.00581 4.82 0.00991 7.22 0.00581 3.74 0.00604 7.49 0.00154 11.2-0.00151 1.99 0.00137 3.97 0.00443 5.96-0.0438 16.7-0.0438 16.7-2.14 18.8-0.276 1.97-0.492 3.96-0.684 5.94-0.123 1.22-0.246 2.45-0.373 3.71-0.251 2.58-0.501 5.16-0.75 7.74-0.647 6.41-1.54 12.4-3.19 18.6-0.69 3.89-1.27 7.79-1.88 11.7-3.79 23.5-3.79 23.5-10.1 30.3-3.14 1.05-5.69 1.26-8.99 1.46-1.18 0.078-2.36 0.156-3.58 0.236-2.48 0.157-4.97 0.31-7.45 0.461-1.19 0.0793-2.37 0.159-3.59 0.24-1.62 0.1-1.62 0.1-3.27 0.203-10.1 1.28-20.2 6.73-29.1 11.5-2.06 0.918-2.06 0.918-5.06 0.918-1.41-2.81-1.21-4.88-1-8 3.44-9.3 9.45-20.9 17.6-26.9 6.72-5.15 10-15.3 12.4-23.1h2c0.125-1.17 0.25-2.34 0.379-3.55 0.5-4 1.45-7.75 2.56-11.6 2.48-9.17 3.17-18.5 3.83-27.9 0.234-1.9 0.234-1.9 1.23-3.9 0.0977-2.06 0.131-4.12 0.133-6.19 0.00193-1.89 0.00193-1.89 0.00391-3.81-0.00209-0.659-0.00419-1.32-0.00635-2-0.00528-1.97 4.35e-4 -3.95 0.00635-5.92-0.00722-7.09-0.228-14.1-1.14-21.1h-1c-0.147-0.886-0.294-1.77-0.445-2.68-3.9-22.3-3.9-22.3-16.7-39.9-0.901-0.692-0.901-0.692-1.82-1.4v-2c-1.21-0.371-1.21-0.371-2.44-0.75-2.75-0.966-5.25-2.01-7.88-3.25-3.89-1.77-7.65-2.81-11.8-3.61-1.85-0.395-1.85-0.395-3.85-1.39-2.39-0.124-4.79-0.176-7.19-0.188-1.29-0.0142-2.59-0.0284-3.92-0.043-3.94 0.233-7.14 1.04-10.9 2.23-1.96 0.442-3.92 0.88-5.88 1.31-5 1.22-9.03 2.99-13.4 5.7-1.74 0.988-1.74 0.988-3.74 0.988-0.33 0.99-0.66 1.98-1 3-1.32 0.698-2.65 1.36-4 2-2.09 2.29-4.05 4.59-6 7l-2.25 2.73c-2.26 2.75-4.51 5.51-6.75 8.27-0.652 0.779-1.3 1.56-1.98 2.36-17 22.2-28.3 54.4-33.5 81.6-0.492 2-0.492 2-1.48 4.18-1.21 3.38-1.47 6.39-1.73 9.97-1.52 17.6-3.13 31.8-16.3 44.9-0.66 0.99-1.32 1.98-2 3h-2c-0.33 0.99-0.66 1.98-1 3-9.97 1.8-19.9 0.306-29-4-12.8-4.36-25-3.38-38.2-1.92-30.1 3.33-57.6 4.96-84.8-10.1-1.05-0.553-2.09-1.11-3.17-1.68-4.18-2.23-8.06-4.46-11.8-7.32-14.2-9.12-31.8-9.61-48.1-9.75-1.75-0.0283-3.5-0.0582-5.25-0.0898-4.21-0.0726-8.42-0.123-12.6-0.16l-1-3 1.33-1.3c1.56-1.59 2.95-3.23 4.36-4.95 8.11-9.48 18.2-16.7 29.7-21.6 2.47-1.1 4.71-2.35 7.02-3.75 4.62-2.64 9.42-4.07 14.5-5.54 2.52-0.726 4.96-1.52 7.43-2.4 4.87-1.65 9.85-2.84 14.8-4.05 3.02-0.733 6.01-1.49 8.99-2.38 5.75-1.59 11.6-2.77 17.4-4 1.78-0.378 1.78-0.378 3.6-0.764 2.41-0.511 4.82-1.02 7.22-1.53 33.1-5.34 33.1-5.34 63.6-17.8 0.909-0.544 1.82-1.09 2.75-1.65 0.927-0.57 1.85-1.14 2.81-1.73 0.929-0.565 1.86-1.13 2.82-1.71 2.81-2.05 4.56-4.12 6.62-6.91 0.648-0.764 1.3-1.53 1.96-2.32 6.97-9.18 11.6-19.4 13.5-30.7 0.678-3.71 1.94-6.54 3.54-9.95 2.54-6.45 4.04-13.1 5.55-19.9 0.935-4.14 2.08-8.1 3.45-12.1 0.498-1.95 0.977-3.91 1.44-5.88 1.03-4.21 2.26-8.16 3.88-12.2 1.02-2.89 1.59-5.85 2.16-8.86 0.527-2.08 0.527-2.08 1.5-3.94 1.04-2.16 1.56-4.03 2.03-6.37 0.164-0.813 0.328-1.63 0.497-2.46 0.166-0.861 0.332-1.72 0.503-2.61 0.175-0.888 0.35-1.78 0.531-2.69 1.26-6.52 2.23-13 2.98-19.6 0.455-3.1 1.19-6.04 1.98-9.07 1.04-4.66 1.51-9.42 2.08-14.2 0.248-2.06 0.499-4.12 0.754-6.18 0.108-0.902 0.215-1.8 0.326-2.73 0.357-2.21 0.357-2.21 1.36-4.21 2.15-16.9 2.26-34.2 2.69-51.2 0.0247-0.9 0.0495-1.8 0.075-2.73 0.25-9.37 0.338-18.7-0.118-28.1-0.032-0.736-0.064-1.47-0.097-2.23-0.233-3.96-0.826-7.19-2.55-10.8-5.96-0.336-10 0.429-15.4 3.19-0.648 0.318-1.3 0.636-1.97 0.964-1.9 0.934-3.78 1.89-5.66 2.85-1.81 0.917-3.62 1.83-5.44 2.75-0.78 0.394-1.56 0.789-2.36 1.2-3.32 1.59-6.73 2.83-10.2 4.05-1.4 0.541-2.79 1.08-4.19 1.62-6.6 2.44-14 4.02-20.7 1.12-3.56-2.93-5.22-5.13-6.06-9.69-1.16-15.5 10.7-32.2 18.2-45 0.516-0.883 1.03-1.77 1.56-2.68 0.491-0.817 0.982-1.63 1.49-2.48 0.436-0.731 0.872-1.46 1.32-2.21 1.32-1.7 1.32-1.7 4.32-2.7 0.698-1.65 1.36-3.32 2-5 3.84-5.42 8.18-10.4 13-15l5-5c0.757-0.771 1.51-1.54 2.29-2.34 22.8-22.5 50.5-37.4 81.7-44.2 3.98-0.886 7.93-1.87 11.9-2.84 6.86-1.35 13.7-1.77 20.7-1.75zm-87.6 133v13h1v-13h-1zm0 22v18h1v-18h-1zm-4 65 1 3zm-1 8 1 3zm-4 23 1 2zm-5 28 1 2zm-13 46 1 3zm184 103v7h1v-7h-1zm-5 32 1 2z" fill="#FBFCFA"/>
<path transform="translate(842 358)" d="m0 0c6.06 0.0493 9.74 0.927 14.6 4.44 5.16 5.52 6.48 10.3 6.43 17.6 0.0062 0.81 0.0124 1.62 0.0188 2.45 0.00707 1.71 0.00398 3.41-0.00877 5.12-0.0138 2.58 0.0202 5.16 0.0583 7.74 0.0396 9.03-0.203 16.4-5.63 24h-2c-0.371 0.959-0.371 0.959-0.75 1.94-1.25 2.06-1.25 2.06-3.31 2.62-0.959 0.217-0.959 0.217-1.94 0.438-0.33 0.99-0.66 1.98-1 3-2.37 0.858-4.55 1.47-7 2-0.719 0.159-1.44 0.317-2.18 0.481-6.41 1.34-12.8 2.18-19.3 2.89-9.17 1.06-18.3 2.25-27.4 3.62-1.59 0.231-1.59 0.231-3.21 0.466-14.5 2.11-14.5 2.11-25.9 10.5-0.655 0.746-1.31 1.49-1.98 2.26-8.04 11.5-6.75 28.8-4.64 42.1 0.454 2.09 0.454 2.09 1.62 4.6 0.99 0.33 1.98 0.66 3 1v2c0.949 0.309 1.9 0.619 2.88 0.938 3.12 1.06 3.12 1.06 5.12 2.06 8.19 0.617 15.8-0.14 23.8-1.79 29.2-5.97 29.2-5.97 39.2-0.215 5.61 5.45 7.81 10.5 8.13 18.2-0.00881 3.93-0.0447 7.87-0.133 11.8-0.0268 1.21-0.0268 1.21-0.0542 2.44-0.0669 2.52-0.159 5.04-0.258 7.56-0.0336 1.18-0.0336 1.18-0.0679 2.39-0.329 7.01-2.13 12.4-6.87 17.8-0.541 0.633-1.08 1.27-1.64 1.92-6.35 5.7-12.6 6.82-20.8 7.96-1.1 0.165-2.2 0.33-3.33 0.5-5.22 0.779-10.5 1.5-15.7 2.21-8.15 1.13-15.8 2.23-23.4 5.45-1.9 0.77-1.9 0.77-3.9 0.77-0.247 0.578-0.495 1.15-0.75 1.75-1.25 2.25-1.25 2.25-3.12 4-7.82 8.28-8.4 20-8.57 30.8-0.0217 0.958-0.0435 1.92-0.0659 2.9-0.0436 2-0.0828 4.01-0.118 6.01-0.0548 3.08-0.125 6.15-0.197 9.23-0.0406 1.95-0.0804 3.91-0.119 5.86-0.0208 0.921-0.0415 1.84-0.0629 2.79-0.0136 0.848-0.0273 1.7-0.0413 2.57-0.014 0.747-0.0279 1.49-0.0423 2.26-0.0225 1.94-0.0225 1.94 1.1 3.84 0.184 1.45 0.32 2.91 0.43 4.37 0.107 1.32 0.107 1.32 0.216 2.66 0.0757 0.938 0.151 1.88 0.229 2.84 0.71 7.98 1.83 15.4 4.12 23.1 0.603 2.14 1.2 4.28 1.79 6.43 0.429 1.55 0.86 3.09 1.29 4.63 1.81 6.46 3.44 13 5.02 19.5 0.818 3.4 0.818 3.4 1.98 6.37 1.17 3.94 1.36 7.56 1.42 11.6 0.0412 0.742 0.0825 1.48 0.125 2.25 0.0605 4.25-0.248 5.75-3.09 9.09-7.36 5.08-16.4 4.29-24.9 4.1-20.8-0.191-41 2.33-60.9 8.62-6.25 1.92-12.3 2.39-18.8 1.38-3.55-2.11-4.7-4.94-5.81-8.88-0.0619-0.701-0.124-1.4-0.188-2.12h-1c-0.0103-0.554-0.0206-1.11-0.0312-1.68-0.111-5.92-0.225-11.8-0.341-17.8-0.0425-2.19-0.0842-4.38-0.125-6.58-0.225-12-0.526-24.1-1.01-36.1-0.52-13.1-0.707-26.2-0.857-39.3-0.241-21.1-0.536-42.1-1.63-63.1-0.0419-0.814-0.0838-1.63-0.127-2.47-0.364-8.48-0.364-8.48-1.38-16.9-0.747-5.17-0.616-10.3-0.585-15.6 0.00364-1.14 0.00729-2.27 0.011-3.44 0.0656-13.8 0.341-27.5 0.637-41.3 0.0297-1.39 0.0593-2.79 0.0889-4.18 0.124-5.79 0.249-11.6 0.378-17.4 0.184-8.21 0.357-16.4 0.518-24.6 0.115-5.83 0.241-11.7 0.375-17.5 0.0792-3.46 0.154-6.92 0.217-10.4 0.0699-3.84 0.162-7.68 0.257-11.5 0.0173-1.13 0.0345-2.26 0.0523-3.43 0.168-6.01 0.748-10.4 3.56-15.7 0.516-1.11 1.03-2.23 1.56-3.38 1.64-2.99 2.52-3.16 5.44-4.62v-2c4.98-4.19 10.5-6.02 16.8-7.19 0.806-0.161 1.61-0.322 2.44-0.488 7.91-1.5 15.9-2.27 23.9-2.93 3.69-0.14 3.69-0.14 5.9-1.39 2.46-0.353 4.91-0.661 7.38-0.938 1.49-0.174 2.99-0.349 4.48-0.523 2.36-0.271 4.72-0.541 7.08-0.81 2.27-0.26 4.55-0.526 6.82-0.792 0.71-0.0792 1.42-0.158 2.15-0.24 3.34-0.144 3.34-0.144 6.09-1.7 1.97-0.287 3.95-0.516 5.93-0.719 1.21-0.128 2.41-0.255 3.65-0.387 1.27-0.13 2.54-0.26 3.85-0.395 2.5-0.257 5-0.517 7.5-0.781 1.11-0.114 2.23-0.228 3.38-0.346 2.65-0.222 2.65-0.222 4.69-1.37 1.94-0.279 3.89-0.511 5.85-0.719 1.16-0.128 2.32-0.255 3.52-0.387 2.47-0.263 4.93-0.526 7.4-0.789 1.74-0.191 1.74-0.191 3.52-0.387 1.61-0.171 1.61-0.171 3.25-0.346 2.41-0.114 2.41-0.114 3.47-1.37 2.5-0.361 4.99-0.667 7.5-0.938 0.751-0.085 1.5-0.17 2.28-0.258 3.23-0.365 6.45-0.72 9.68-1.08 2.35-0.261 4.7-0.526 7.05-0.792 0.735-0.0792 1.47-0.158 2.23-0.24 4.67-0.529 7.96-1.97 12.8-2.14zm-190 84.4 1 2zm-2 115 1 2zm3 42v7h1v-7h-1zm2 89v10h1v-10h-1z" fill="#FCFDFB"/>
<path transform="translate(1221 307)" d="m0 0c6.75 6.09 6.75 6.09 7.05 11.7 0.0128 1.74 0.00322 3.47-0.0249 5.21-9.16e-4 0.926-0.00183 1.85-0.00278 2.81-0.00603 1.96-0.0218 3.91-0.0465 5.87-0.0363 2.97-0.041 5.94-0.0405 8.91-0.00984 1.91-0.0215 3.82-0.0352 5.72-0.00223 0.878-0.00445 1.76-0.00674 2.66-0.111 7.36-0.269 15.4-5.83 20.8-0.608 0.626-1.22 1.25-1.84 1.9-6.85 4.45-15.4 5.32-23.4 6.26-0.986 0.124-1.97 0.248-2.99 0.376-3.12 0.392-6.23 0.772-9.35 1.15-3.12 0.384-6.24 0.77-9.36 1.16-1.93 0.242-3.86 0.479-5.8 0.711-14.4 1.6-14.4 1.6-25.5 10.3-5.49 7.39-4.52 17.2-4.44 25.9 6.45e-4 1.25 0.00129 2.5 0.00195 3.79 0.0105 8.1 0.0105 8.1 1.19 16.1 1.68 1.38 1.68 1.38 4 2 1.33 0.557 1.33 0.557 2.69 1.12 7.59 2.01 15.4 0.616 23-0.562 0.911-0.135 1.82-0.269 2.76-0.408 3.6-0.535 7.18-1.09 10.8-1.72 13.5-2.08 13.5-2.08 19.2 0.77 3.06 2.56 5.11 5.09 6.61 8.8 0.243 3.15 0.243 3.15 0.23 6.86-4.58e-4 0.669-9.16e-4 1.34-0.00139 2.03-0.00302 1.42-0.0109 2.84-0.0233 4.26-0.0179 2.12-0.0205 4.23-0.0203 6.35-0.0771 30.4-0.0771 30.4-6.94 37.2-7.29 5.04-13.9 5.97-22.6 6.88-1.09 0.121-2.17 0.242-3.29 0.367-4 0.445-8.01 0.871-12 1.28-4.39 0.463-8.2 1.11-12.3 2.72-1.13 0.351-2.27 0.701-3.44 1.06-5.55 2.4-9.08 7.99-11.7 13.2-1.09 3.49-1.31 6.88-1.46 10.5-0.0358 0.768-0.0715 1.54-0.108 2.33-0.109 2.62-0.192 5.24-0.267 7.86-0.0287 1-0.0574 2.01-0.0869 3.04-0.0774 3.17-0.125 6.35-0.163 9.52-0.0214 0.998-0.0429 2-0.0649 3.02-0.0277 6.13 0.394 11.9 3.31 17.4 4.06 4.02 7.88 5.3 13.6 5.44 3.03-0.0765 5.47-0.448 8.38-1.34 5.98-1.81 12.3-2.3 18.4-3.1 7.32-0.947 14.6-1.89 21.8-3.59 5.26-1.15 11.2-1.76 16.1 0.688 4.62 3.67 7.19 8.35 8.16 14.2 0.251 2.58 0.426 5.16 0.57 7.76 0.0623 0.948 0.125 1.9 0.189 2.87 0.195 3.01 0.372 6.02 0.549 9.04 0.13 2.02 0.261 4.04 0.393 6.06 1.45 22.7 1.45 22.7 0.107 28.9-0.226 1.13-0.226 1.13-0.457 2.28-0.362 0.884-0.362 0.884-0.73 1.79-0.99 0.33-1.98 0.66-3 1-0.3 0.638-0.601 1.28-0.91 1.93-1.84 3.49-4.88 3.91-8.47 5.12-5.27 1.37-10.6 2.17-16 2.9-1.18 0.162-1.18 0.162-2.38 0.328-0.7 0.0898-1.4 0.18-2.12 0.272-2.23 0.389-2.23 0.389-4.56 1.43-2.73 1.07-5.12 1.48-8.02 1.82-1.01 0.124-2.03 0.249-3.07 0.377-1.57 0.183-1.57 0.183-3.17 0.369-2.09 0.248-4.17 0.499-6.26 0.754-1.38 0.162-1.38 0.162-2.79 0.326-2.29 0.245-2.29 0.245-4.26 1.36-1.47 0.197-2.94 0.344-4.42 0.465-1.37 0.115-1.37 0.115-2.77 0.233-0.99 0.0792-1.98 0.158-3 0.24-1.01 0.085-2.03 0.17-3.07 0.258-4.35 0.365-8.7 0.72-13 1.08-3.17 0.261-6.34 0.526-9.51 0.792-0.99 0.0792-1.98 0.158-3 0.24-1.37 0.115-1.37 0.115-2.77 0.233-0.807 0.0658-1.61 0.132-2.44 0.199-2.05 0.167-2.05 0.167-3.97 1.27-9.27 1.51-18.9 1.19-28.2 1.19-2.67 0.00221-5.34 0.0205-8.02 0.0393-1.71 0.00293-3.42 0.00492-5.13 0.00586-0.793 0.00719-1.59 0.0144-2.4 0.0218-5.11-0.0211-9.14-0.333-13-3.87-0.49-0.599-0.98-1.2-1.48-1.82-0.5-0.597-1-1.19-1.52-1.81-3.01-4.27-2.36-9.06-2.32-14 0.00569-1.54 0.00569-1.54 0.0115-3.12 0.0183-3.87 0.0472-7.73 0.0784-11.6 0.0092-1.19 0.0092-1.19 0.0186-2.4 0.098-12.6 0.221-25.1 0.354-37.7 0.0549-5.2 0.105-10.4 0.154-15.6 0.0396-4.09 0.0825-8.19 0.126-12.3 0.0199-1.92 0.0387-3.83 0.0561-5.75 0.108-11.7 0.422-23.5 0.9-35.2 0.506-12.5 0.809-25.1 1.11-37.6 0.0633-2.59 0.127-5.18 0.19-7.77 0.132-5.41 0.263-10.8 0.393-16.2 0.146-6.09 0.295-12.2 0.445-18.3 0.147-5.99 0.293-12 0.438-18 0.0639-2.64 0.128-5.28 0.193-7.92 0.349-14.3 0.657-28.7 0.868-43 0.0193-1.25 0.0387-2.5 0.0586-3.79 0.0914-5.92 0.175-11.8 0.24-17.8 0.0308-2.1 0.062-4.2 0.0936-6.31 0.00678-0.934 0.0136-1.87 0.0206-2.83 0.143-8.34 0.745-18.1 6.97-24.2 8.51-6.46 17-7.51 27.2-8.62 2.14-0.244 4.27-0.493 6.41-0.744 1.92-0.225 3.85-0.438 5.77-0.651 2.87-0.248 2.87-0.248 4.95-1.42 1.91-0.268 3.83-0.488 5.75-0.684 1.17-0.123 2.33-0.246 3.54-0.373 2.45-0.251 4.89-0.501 7.34-0.75 5.93-0.627 11.7-1.4 17.5-2.65 6.79-1.31 13.7-2.12 20.5-3.05 1.56-0.215 3.12-0.429 4.69-0.645 5.97-0.82 11.9-1.64 17.9-2.42 0.676-0.0887 1.35-0.177 2.05-0.269 1.82-0.238 3.65-0.474 5.47-0.71 3.01-0.432 5.97-0.975 8.95-1.58 6.77-1.25 13.4-2.3 19.7 0.812zm-166 171v6h1v-6h-1zm-2 72v16h1v-16h-1zm-1 93 1 2z" fill="#FCFDFB"/>
<path transform="translate(1388 303)" d="m0 0c2.79 2.53 4.53 4.62 5.44 8.38h2c5.86 11.3 10.8 21.8 12.6 34.6 0.27 2.43 0.27 2.43 1.39 4.43 1.2 9.35 1.16 18.8 1.13 28.2-0.00536 2.28-1.66e-5 4.55 0.00635 6.83 0.00896 17.4 0.00896 17.4-1.14 25.9-0.33 0.33-0.66 0.66-1 1-0.296 1.99-0.586 3.98-0.849 5.98-2.41 17.9-8.48 34.3-19.2 49h-2c-0.289 0.784-0.577 1.57-0.875 2.38-1.12 2.62-1.12 2.62-3.12 4.62-0.681 5.39-0.0737 10.5 1.43 15.7 1 3.98 1.46 8.06 2.01 12.1 0.481 3.14 0.481 3.14 1.53 6.02 1.26 3.82 1.89 7.61 2.53 11.6 0.66 4.08 1.35 8.03 2.5 12 1.44 5.11 2.1 10.3 2.86 15.5 0.12 0.803 0.24 1.61 0.363 2.43 0.102 0.715 0.205 1.43 0.311 2.17 0.464 2.6 0.464 2.6 1.45 5.75 1.03 3.72 1.59 7.27 2.05 11.1 0.125 1.01 0.125 1.01 0.253 2.05 0.263 2.13 0.519 4.26 0.774 6.4 0.259 2.15 0.519 4.31 0.785 6.46 0.239 1.94 0.472 3.88 0.704 5.82 0.146 2.74 0.146 2.74 1.45 3.85 1.04 13.8-0.862 26-10 37-7.67 7.74-14.5 11.1-25.3 11.2-0.889 6.45e-4 -1.78 0.00129-2.7 0.00195-0.889 0.0122-1.78 0.0245-2.7 0.0371-7.06 0.0158-11.2-1.08-16.8-5.62-4.98-5.24-6.48-10.3-7.71-17.2-0.167-0.881-0.335-1.76-0.507-2.67-1.2-6.55-2.03-13-2.31-19.7h-1c-0.111-1.13-0.221-2.26-0.335-3.42-0.416-4.23-0.839-8.46-1.26-12.7-0.182-1.82-0.362-3.65-0.541-5.47-1.19-12.8-1.19-12.8-3.42-25.4-0.756-3.53-1.15-7.1-1.57-10.7-0.0864-0.718-0.173-1.44-0.262-2.18-0.208-1.73-0.411-3.47-0.613-5.2h-1c-0.0804-0.615-0.161-1.23-0.244-1.86-0.37-2.8-0.75-5.59-1.13-8.39-0.126-0.968-0.253-1.94-0.383-2.93l-0.391-2.83c-0.115-0.859-0.23-1.72-0.349-2.6-0.508-2.41-1.3-4.24-2.5-6.38-5.05-0.466-5.05-0.466-9.38 1.81-2.88 3.88-2.79 7.28-2.91 12-0.018 0.71-0.0361 1.42-0.0547 2.15-0.0596 2.41-0.112 4.83-0.164 7.24-0.0409 1.73-0.0819 3.45-0.123 5.18-0.27 11.7-0.457 23.4-0.627 35.1-0.0212 1.44-0.0424 2.88-0.0636 4.32-0.0947 6.46-0.187 12.9-0.267 19.4-0.0263 2.06-0.0544 4.13-0.0833 6.19-0.0353 2.54-0.0674 5.08-0.0957 7.62-0.358 24.6-0.358 24.6-7.92 32.8-1.72 1.52-3.44 2.87-5.32 4.18-0.901 0.668-1.8 1.34-2.73 2.02-3.69 2.23-6.98 3.26-11.1 4.23-0.669 0.173-1.34 0.345-2.03 0.523-7.67 1.86-15 2.19-22.1-1.77-5.83-4.31-8.34-9.03-10-16h-1c-0.774-4.13-1.13-8.04-1.16-12.2-0.00948-1.25-0.019-2.5-0.0287-3.78-0.00486-1.39-0.00926-2.78-0.0133-4.16-0.00688-1.5-0.0138-3-0.0207-4.5-0.0197-5.06-0.0235-10.1-0.0262-15.2-0.00103-0.882-0.00206-1.76-0.00312-2.67-0.0487-44.7 1.03-89.4 2.1-134 0.025-1.04 0.025-1.04 0.0505-2.11 0.0503-2.1 0.101-4.2 0.151-6.3 0.0165-0.689 0.033-1.38 0.0501-2.09 0.0826-3.44 0.166-6.88 0.25-10.3 0.374-15.3 0.705-30.7 0.939-46 0.0109-0.707 0.0219-1.41 0.0332-2.14 0.115-7.43 0.222-14.9 0.317-22.3 0.0341-2.38 0.0682-4.76 0.102-7.14 0.0117-1.09 0.0235-2.18 0.0356-3.31 0.0225-1.48 0.0225-1.48 0.0454-3 0.0108-0.861 0.0217-1.72 0.0328-2.61 0.148-2.07 0.148-2.07 1.15-4.07 0.083-1.96 0.108-3.93 0.105-5.9 0.0148-1.2 0.0296-2.41 0.0449-3.64 0.0244-2.52 0.0302-5.03 0.0156-7.55 0.153-8.76 1.76-15.6 6.83-22.9 6.81-6.06 14.8-9.22 23.8-10.1 0.718-0.0822 1.44-0.164 2.18-0.249 2.27-0.258 4.54-0.501 6.81-0.743 2.29-0.251 4.57-0.506 6.86-0.765 1.42-0.159 2.83-0.314 4.25-0.464 3.66-0.38 3.66-0.38 7.08-1.65 28.9-4.87 57.8-7.96 81.6 11.6zm-140 44.4v30h1v-30h-1zm64.6 15.2c-3.99 6.9-2.87 16.6-3.01 24.4-0.0255 1.29-0.051 2.58-0.0773 3.91-0.0527 2.71-0.102 5.43-0.148 8.14-0.0607 3.47-0.135 6.94-0.212 10.4-0.0714 3.33-0.128 6.65-0.187 9.98-0.0291 1.24-0.0581 2.49-0.0881 3.77-0.0169 1.16-0.0339 2.31-0.0513 3.5-0.0192 1.02-0.0384 2.03-0.0582 3.08 0.218 2.78 0.626 4.38 2.21 6.67 5.39 1.8 10.3 1.57 15.7-0.25 9.27-4.9 14.5-9.95 18.3-19.8 2.17-7.91 2.19-16 2.25-24.2 0.00943-0.914 0.0189-1.83 0.0286-2.77-0.0487-10.2-1.24-20.7-8.53-28.4-8.49-5.02-18.6-5.41-26.1 1.56zm-65.6 44.8v7h1v-7h-1zm-2 87v10h1v-10h-1zm-1 49v7h1v-7h-1zm86 10 1 2zm4 29 1 2zm-90 35 1 2zm0 4v6h1v-6h-1z" fill="#FCFDFB"/>
<path transform="translate(1032 336)" d="m0 0c2.33 1.85 3.24 3.54 3.82 6.45h2c1.21 3.64 1.18 7.02 1.2 10.8 0.0057 0.771 0.0114 1.54 0.0173 2.34 0.00945 1.63 0.016 3.27 0.0198 4.9 0.00964 2.47 0.0406 4.94 0.0723 7.41 0.054 8.28-0.0443 15.8-3.31 23.5h-2c-0.254 0.762-0.508 1.52-0.77 2.31-2.11 4.62-5.77 6.51-10.2 8.69-3.8 1.23-7.56 2.22-11.4 3.14-3.27 0.792-6.41 1.65-9.55 2.86-1.13 1.83-1.13 1.83-2 4-0.784 0.681-1.57 1.36-2.38 2.06-6.17 6.9-7.22 15.8-7.33 24.8-0.0415 1.54-0.0415 1.54-0.0837 3.11-0.0571 2.21-0.106 4.42-0.147 6.63-0.0646 3.44-0.153 6.89-0.248 10.3-0.186 6.91-0.342 13.8-0.491 20.7-0.0608 2.8-0.123 5.61-0.185 8.41-0.166 7.51-0.329 15-0.49 22.5-0.117 5.45-0.237 10.9-0.357 16.4-0.679 30.7-1.34 61.5-1.57 92.2-0.0164 2.08-0.0329 4.15-0.0493 6.23-0.0639 8.42-0.115 16.8-0.116 25.3-0.00352 3.31-0.0221 6.63-0.0441 9.94-0.00616 1.49-0.00536 2.98 0.00347 4.47 0.0583 9.97-0.819 18.4-7.02 26.5-2.32 2.26-3.32 3.2-6.5 3.44v2c-5.66 2.15-5.66 2.15-8 3-0.846 0.356-1.69 0.712-2.56 1.08-4.94 1.33-9.71 1.29-14.8 1.3-1 0.0245-2.01 0.049-3.04 0.0742-6.66 0.0262-10.9-0.999-16.6-4.45v-2c-0.99-0.33-1.98-0.66-3-1-4.44-6.74-4.51-12.4-4.3-20.3 0.0158-1.23 0.0315-2.45 0.0477-3.71 0.0474-3.37 0.113-6.73 0.187-10.1 0.0745-3.59 0.125-7.19 0.179-10.8 0.108-6.94 0.237-13.9 0.374-20.8 0.157-7.99 0.29-16 0.423-24 0.684-41 1.5-82 2.54-123 0.153-6.07 0.291-12.1 0.415-18.2 0.0935-4.52 0.224-9.03 0.362-13.5 0.0475-2.25 0.0935-4.5 0.138-6.74 0.0386-0.975 0.0772-1.95 0.117-2.95 0.0852-6.7-1.51-11.4-5.48-16.8-4.83-4.48-9.17-4.56-15.4-4.56-7.13-0.0392-12.9-0.319-18.6-5.12-0.476-0.579-0.951-1.16-1.44-1.75-0.494-0.576-0.987-1.15-1.5-1.75-1.07-1.82-1.07-1.82-1.07-5.82h-2c-0.125-4.66-0.215-9.32-0.275-14-0.0249-1.58-0.0589-3.16-0.103-4.74-0.256-9.53-0.265-17.1 5.38-25.3 0.627-0.955 0.627-0.955 1.27-1.93 5.59-7.49 13.7-11 22.7-12.4 4.35-0.571 8.71-1.05 13.1-1.5 2.69-0.301 5.38-0.608 8.06-0.918 1.66-0.189 3.32-0.372 4.98-0.548 4.07-0.372 4.07-0.372 7.89-1.72 1.42-0.206 2.85-0.366 4.28-0.5 0.842-0.0825 1.68-0.165 2.55-0.25l5.34-0.5c0.842-0.0825 1.68-0.165 2.55-0.25 0.773-0.0722 1.55-0.144 2.34-0.219 2.02-0.189 2.02-0.189 3.94-1.28 1.57-0.243 3.14-0.44 4.71-0.613 0.984-0.112 1.97-0.223 2.98-0.339 1.07-0.119 2.14-0.238 3.24-0.361 10.7-1.22 21.3-2.71 31.9-4.42 17.2-2.67 17.2-2.67 25.3 2.28zm-151 35.4 1 3zm44 123v15h1v-15h-1z" fill="#FCFDFB"/>
<path transform="translate(572 490)" d="m0 0c3.87 2.8 6.96 5.2 8.5 9.81 1.9 0.601 1.9 0.601 4 1 0.99 0.66 1.98 1.32 3 2v4h2c2.3 2.56 3 3.48 3 7h3c1.72 6.15 1.96 10.7 1 17 0.301 1.34 0.636 2.67 1 4 2.05 18.4 0.869 37.3 0.331 55.8-0.122 4.21-0.23 8.42-0.332 12.6-0.0821 3.29-0.173 6.57-0.265 9.86-0.0428 1.55-0.0831 3.1-0.121 4.66-0.202 8.18-0.568 16.1-2.61 24.1-0.934-3.01-1.04-3.87 0-7h-2c-0.268 1.24-0.536 2.48-0.812 3.75-0.619 2.84-1.29 5.64-2.06 8.45-0.435 1.6-0.435 1.6-0.879 3.24-0.284 1.01-0.567 2.02-0.859 3.06-0.193 1.24-0.193 1.24-0.391 2.5 0.66 0.66 1.32 1.32 2 2-0.66 1.65-1.32 3.3-2 5h-2c-0.33 0.99-0.66 1.98-1 3-0.99 0.33-1.98 0.66-3 1-1.22 2.5-1.22 2.5-2 5h-3c-0.0825 0.536-0.165 1.07-0.25 1.62-1.2 3.79-3.11 7.29-6.48 9.52-2.97 1.12-5.67 1.25-8.84 1.42-3.43 0.191-6.17 0.349-9.44 1.44v-2c-15.8 0.495-15.8 0.495-32 1v2c0.66 0.33 1.32 0.66 2 1-3.74 2.49-5.74 2.21-10.2 2.12-1.27-0.018-2.54-0.0361-3.86-0.0547-0.976-0.0232-1.95-0.0464-2.96-0.0703 0.206 0.619 0.413 1.24 0.625 1.88 0.124 0.701 0.248 1.4 0.375 2.12-0.66 0.66-1.32 1.32-2 2-0.33-0.66-0.66-1.32-1-2-4.29 0.33-8.58 0.66-13 1v2c-7.33 0.473-12.4-0.901-19-4v-2c-3.05-1.01-3.05-1.01-6 0-0.495-1.98-0.495-1.98-1-4h-2c-1.39-1.75-2.56-3.6-3.78-5.47-0.603-0.758-0.603-0.758-1.22-1.53h-2c-0.454-0.969-0.908-1.94-1.38-2.94-1.28-3.13-1.28-3.13-3.62-4.06 0.206-1.11 0.413-2.23 0.625-3.38 0.186-1.79 0.186-1.79 0.375-3.62-0.66-0.66-1.32-1.32-2-2-2.2-3.31-2.27-4.18-2-8 0.17-0.695 0.34-1.39 0.516-2.11 0.789-4.72 0.487-9.44 0.357-14.2-0.0669-4.7 0.496-8.21 2.13-12.7-0.33-0.66-0.66-1.32-1-2-0.0402-2.33-0.0432-4.67 0-7h2c0.33-3.63 0.66-7.26 1-11h-2v-5h2c0.295-12.7 0.295-12.7-0.562-25.4-0.535-5.76-0.357-11.4-0.125-17.2 0.0347-0.99 0.0694-1.98 0.105-3 0.0439-0.93 0.0878-1.86 0.133-2.82 0.0378-0.841 0.0756-1.68 0.115-2.55 0.335-2.07 0.335-2.07 2.33-4.07 0.242-1.98 0.242-1.98 0.125-4.12-0.0619-1.92-0.0619-1.92-0.125-3.88h3c0.098-0.603 0.196-1.21 0.297-1.83 0.691-3.69 1.31-6.57 3.39-9.73 3.18-1.97 5.64-1.64 9.31-1.44l2-1v-3c3.46-5.03 6.28-6.98 12-9 0.383 0.49 0.766 0.98 1.16 1.48 2.51 2.07 4.05 1.85 7.28 1.77 1.06-0.0271 2.12-0.0541 3.21-0.082 8.93 0.0303 8.93 0.0303 17.4-2.17v-2c2.75-2.44 5.56-3.76 9-5v2c2.5-0.781 2.5-0.781 5-2 0.495-1.49 0.495-1.49 1-3 0.66-0.33 1.32-0.66 2-1 0.33-0.66 0.66-1.32 1-2 5.12-3.45 8.87-4.57 15-5v-4c8.56-3.24 17.7-4.81 26.5-1.81z" fill="#F6DC54"/>
<path transform="translate(1142,709)" d="m0 0c1.46 1.43 1.46 1.43 2.94 3.44 0.592 0.797 1.18 1.59 1.79 2.41 0.749 1.04 1.5 2.08 2.27 3.15 1.08 1.49 2.16 2.97 3.24 4.46 2.79 3.85 5.57 7.71 8.34 11.6 1 1.39 2.04 2.75 3.1 4.09 1.32 1.87 1.32 1.87 1.32 3.87h2c1.26 1.65 1.26 1.65 2.69 3.94 2.75 4.3 5.77 8.26 8.99 12.2 1.32 1.85 1.32 1.85 1.32 3.85h2c1.3 1.69 1.3 1.69 2.75 4 1.92 2.97 3.85 5.88 6 8.69 6.21 8.17 12.2 16.5 17.7 25.2 2.42 3.43 5.2 6.56 7.98 9.7 1.89 3.02 1.83 4.96 1.54 8.46-4.12 1.02-7.77 1.54-12 1-4.68-3.43-7.68-8.01-10.9-12.8-2.72-4.06-5.62-7.97-8.52-11.9-1.25-1.69-2.51-3.39-3.76-5.08-0.64-0.864-1.28-1.73-1.94-2.62-1.87-2.54-3.74-5.08-5.61-7.62-5.06-6.9-10.1-13.8-15.4-20.6-4.04-5.22-7.95-10.5-11.8-15.9-0.822-1.14-0.822-1.14-1.66-2.3-2.9-4.04-5.71-8.12-8.46-12.3-0.987-1.36-1.99-2.72-3-4.06-0.507-0.678-1.01-1.36-1.54-2.05-1.23-1.58-2.56-3.09-3.9-4.57-1.56-2.31-1.56-2.31-1.31-5.12 0.247-0.722 0.495-1.44 0.75-2.19 1.41-0.366 2.83-0.717 4.25-1.06 0.789-0.197 1.58-0.394 2.39-0.598 2.56-0.369 3.97-0.318 6.36 0.66z" fill="#FCFDFB"/>
<path transform="translate(908,746)" d="m0 0c5.11 4.52 9.4 9.77 10.4 16.7 0.102 5.19-0.695 9.83-1.86 14.9-0.881 4.09-1.44 8.23-2.02 12.4-0.693 4.9-1.41 9.77-2.41 14.6-1.54 7.49-2.75 15-4.03 22.6-1.71 10.1-3.48 20.3-5.4 30.4-0.916 4.83-1.79 9.67-2.66 14.5-3.16 0.704-6.07 1.12-9.31 1.06-1.83-0.0309-1.83-0.0309-3.69-0.0625-1.23-3.68-0.71-5.73-0.0391-9.54 0.11-0.64 0.22-1.28 0.333-1.94 0.353-2.05 0.716-4.1 1.08-6.15 0.47-2.68 0.935-5.36 1.4-8.04 0.22-1.27 0.44-2.55 0.667-3.86 0.555-3.45 0.978-6.88 1.24-10.4 0.322-2.11 0.322-2.11 1.26-5.33 1.14-4.07 1.88-8.07 2.54-12.2 0.128-0.79 0.256-1.58 0.388-2.39 0.268-1.66 0.535-3.32 0.799-4.99 0.401-2.52 0.809-5.04 1.22-7.56 0.261-1.62 0.523-3.25 0.783-4.88 0.12-0.741 0.24-1.48 0.363-2.25 0.711-4.49 1.27-8.97 1.71-13.5 0.409-3.08 1.4-6 2.26-8.98 0.77-4.11 1.41-8.24 2.06-12.4 0.341-2.18 0.686-4.35 1.04-6.52 0.15-0.956 0.299-1.91 0.453-2.9 0.449-2.21 0.449-2.21 1.45-3.21zm-6 32 1 3zm-9 53 1 3z" fill="#FCFDFB"/>
<path transform="translate(1295,683)" d="m0 0c0.67 30.7 1.1 61.4 1.06 92.1-8.56e-4 0.705-0.00171 1.41-0.00259 2.13-0.0112 8.6-0.0311 17.2-0.0599 25.8-4.21 1.85-7.39 2.18-12 2-1.7-3.39-1.25-7.26-1.32-11-0.0209-0.948-0.0418-1.9-0.0634-2.87-0.0673-3.19-0.126-6.38-0.183-9.57-0.0205-1.1-0.041-2.19-0.0622-3.32-0.369-20.2-0.512-40.4-0.557-60.5-0.00629-2.28-0.0162-4.55-0.0271-6.83-0.0166-3.6-0.0228-7.2-0.021-10.8-0.00119-1.98-0.0119-3.96-0.0228-5.94 0.00303-1.18 0.00606-2.36 0.00919-3.57-0.00143-1.03-0.00285-2.06-0.00432-3.13 0.247-2.44 0.247-2.44 2.25-4.44 3.74-1.52 7.11-0.602 11 0zm-12 62v7h1v-7h-1z" fill="#FCFDFB"/>
<path transform="translate(675 788)" d="m0 0c0.799 0.0271 1.6 0.0541 2.42 0.082 0.603 0.0348 1.21 0.0696 1.83 0.105 1.49 2.97 1.18 6.01 1.21 9.27 0.0099 0.752 0.0198 1.5 0.03 2.28 0.0318 2.51 0.0565 5.02 0.0811 7.53 0.0206 1.77 0.0416 3.54 0.063 5.32 0.0441 3.74 0.0849 7.49 0.123 11.2 0.048 4.68 0.102 9.37 0.158 14.1 0.213 17.9 0.383 35.7 0.423 53.6 0.00397 1.59 0.00954 3.18 0.0167 4.77 0.00915 2.17 0.0118 4.35 0.0124 6.52 0.00245 1.23 0.0049 2.45 0.00743 3.71-0.12 2.73-0.12 2.73-1.12 3.73-1.83 0.0985-3.67 0.13-5.5 0.125-1 0.00258-2 0.00516-3.03 0.00781-2.47-0.133-2.47-0.133-3.47-1.13-0.152-2.39-0.24-4.76-0.288-7.16-0.0186-0.75-0.0372-1.5-0.0564-2.27-0.0607-2.51-0.114-5.01-0.168-7.52-0.0406-1.76-0.0815-3.53-0.123-5.29-0.107-4.65-0.207-9.31-0.306-14-0.058-2.71-0.118-5.42-0.179-8.13-0.214-9.53-0.407-19.1-0.561-28.6-0.0716-4.41-0.152-8.81-0.249-13.2-0.0966-4.38-0.174-8.76-0.237-13.1-0.027-1.64-0.0609-3.29-0.102-4.93-0.0554-2.26-0.0857-4.52-0.11-6.78-0.0236-1.28-0.0473-2.56-0.0716-3.88 0.45-3.1 0.45-3.1 2.33-5.02 2.5-1.27 4.09-1.39 6.87-1.27zm-7.75 13.2 1 2zm1 66 1 3z" fill="#FCFDFB"/>
<path transform="translate(1242,691)" d="m0 0c1.55 1.55 1.16 3.06 1.2 5.22 0.0182 0.911 0.0364 1.82 0.0552 2.76 0.0151 1.01 0.0302 2.02 0.0458 3.05 0.0197 1.06 0.0393 2.11 0.0596 3.2 0.0642 3.51 0.121 7.03 0.178 10.5 0.043 2.44 0.0864 4.88 0.13 7.32 0.115 6.44 0.223 12.9 0.33 19.3 0.0883 5.23 0.181 10.5 0.274 15.7 0.111 6.26 0.22 12.5 0.328 18.8 0.0206 1.19 0.0413 2.37 0.0625 3.6 0.0585 3.39 0.116 6.78 0.172 10.2 0.0171 0.987 0.0343 1.97 0.0519 2.99 0.106 6.45 0.13 12.9 0.116 19.3-5.94 0.495-5.94 0.495-12 1-4.49-8.97-2.21-24.9-2.32-34.9-0.0207-1.69-0.0417-3.38-0.063-5.08-0.0436-3.53-0.0845-7.06-0.123-10.6-0.0586-5.33-0.124-10.7-0.191-16-0.0938-7.57-0.169-15.1-0.234-22.7-0.0446-4.83-0.13-9.66-0.24-14.5-0.0367-2.19-0.0733-4.38-0.11-6.57-0.0319-0.966-0.0637-1.93-0.0966-2.93-0.0766-6.26-0.0766-6.26 2.26-8.84 3.54-1.53 6.29-1.17 10.1-0.915z" fill="#FCFDFB"/>
<path transform="translate(874,755)" d="m0 0c0.999 17.6 1.11 35.2 1.12 52.9 0.0025 1.15 5e-3 2.29 0.00757 3.47 0.00596 3.34 0.00437 6.68 2.44e-4 10 0.00198 0.993 0.00397 1.99 0.00601 3.01-0.0494 15.2-1.59 29.1-9.14 42.6-1.32-0.33-2.64-0.66-4-1v-2c-0.619-0.289-1.24-0.577-1.88-0.875-2.12-1.12-2.12-1.12-4.12-3.12 0.267-3.65 1.27-6.84 2.5-10.2 3.29-9.71 2.62-20.1 2.54-30.2-0.0176-2.57-0.0277-5.14-0.0359-7.72-0.0243-7.31-0.0603-14.6-0.105-21.9-0.0267-4.49-0.0438-8.97-0.0549-13.5-0.00622-1.71-0.0162-3.41-0.0301-5.12-0.0191-2.37-0.0261-4.75-0.0303-7.12-0.00876-0.706-0.0175-1.41-0.0266-2.14 0.00983-4.86 0.00983-4.86 2.24-7.09 3.96-1.21 6.98-0.739 11 0zm-12 37 1 4z" fill="#FCFDFB"/>
<path transform="translate(785,770)" d="m0 0c0.0184 0.866 0.0368 1.73 0.0557 2.63 0.177 8.24 0.367 16.5 0.571 24.7 0.104 4.23 0.204 8.46 0.292 12.7 0.0857 4.1 0.185 8.2 0.292 12.3 0.0384 1.55 0.0723 3.1 0.101 4.65 0.263 20 0.263 20 7.6 38.1 1.38 2.4 1.94 4.12 2.09 6.89-1.43 2.46-1.43 2.46-3.44 4.81-0.659 0.79-1.32 1.58-2 2.39-0.517 0.592-1.03 1.18-1.57 1.79-6.43-2.94-9.22-8.75-11.8-15.1-1.27-3.63-1.85-7.12-2.25-10.9h-1c-0.773-6.27-1.19-12.4-1.32-18.7-0.021-0.911-0.0419-1.82-0.0635-2.76-0.0658-2.94-0.125-5.87-0.183-8.81-0.0202-0.999-0.0404-2-0.0612-3.03-0.12-5.98-0.229-12-0.33-17.9-0.0431-2.5-0.09-5.01-0.138-7.51-0.0738-3.94-0.12-7.89-0.159-11.8-0.0214-1.13-0.0427-2.27-0.0647-3.44-0.00665-1.53-0.00665-1.53-0.0134-3.1-0.00935-0.871-0.0187-1.74-0.0283-2.64 0.442-2.72 1.15-3.58 3.36-5.2 3.86-0.827 6.23-1.26 10 0zm-12 17v14h1v-14h-1zm1 54v5h1v-5h-1z" fill="#FCFDFB"/>
<path transform="translate(1129,727)" d="m0 0c3.26 3.03 5.59 6.26 8 10 0.536 0.681 1.07 1.36 1.62 2.06 3.42 4.81 3.68 9.47 3.69 15.2 0.0151 1.23 0.0151 1.23 0.0304 2.48 0.0308 2.7 0.0479 5.4 0.0648 8.1 0.0187 1.88 0.0383 3.75 0.0587 5.63 0.0513 4.93 0.0909 9.86 0.128 14.8 0.0401 5.03 0.0911 10.1 0.141 15.1 0.0967 9.87 0.181 19.7 0.258 29.6-2.85 0.754-5.3 1.11-8.25 1.06-1.86-0.0309-1.86-0.0309-3.75-0.0625-1.68-5.14-2.33-9.84-2.41-15.3-0.0195-0.804-0.0389-1.61-0.059-2.44-0.0608-2.66-0.107-5.33-0.152-7.99-0.0375-1.87-0.0751-3.75-0.113-5.62-0.295-15.7-0.366-31.5-0.387-47.3-0.00268-1.16-0.00536-2.32-0.00812-3.51-0.00578-3.29-0.00417-6.58 3.05e-4 -9.86-0.00197-0.991-0.00395-1.98-0.00598-3 0.0031-0.904 0.0062-1.81 0.0094-2.74 7.96e-4 -0.79 0.00159-1.58 0.00241-2.39 0.127-1.93 0.127-1.93 1.13-3.93zm0 20v34h1v-34h-1zm1 75 1 2z" fill="#FBFCFA"/>
<path transform="translate(1215,695)" d="m0 0c2.04 2.04 1.41 6.12 1.54 8.92 0.0419 0.809 0.0838 1.62 0.127 2.45 0.381 7.83 0.521 15.6 0.588 23.5 0.0216 2.47 0.0485 4.95 0.0767 7.42 0.0687 6.13 0.129 12.3 0.189 18.4 0.0512 5.22 0.106 10.4 0.166 15.7 0.0262 2.42 0.0472 4.84 0.068 7.25 0.0778 7.52 0.321 14.9 1.24 22.4-3.67-3.51-6.73-7.14-9.75-11.2-2.46-3.51-2.46-3.51-5.25-6.75-0.123-1.67-0.178-3.34-0.205-5.01-0.0199-1.07-0.0399-2.15-0.0604-3.25-0.0167-1.18-0.0334-2.36-0.0506-3.57-0.0208-1.22-0.0416-2.44-0.063-3.7-0.0546-3.28-0.105-6.56-0.153-9.84-0.049-3.23-0.106-6.45-0.161-9.68-0.127-7.65-0.222-15.3-0.307-22.9-0.0167-1.3-0.0333-2.61-0.0505-3.95-0.045-3.78-0.0757-7.56-0.102-11.3-0.0151-1.15-0.0302-2.31-0.0458-3.49-0.00414-1.05-0.00829-2.11-0.0126-3.19-0.00769-0.926-0.0154-1.85-0.0233-2.81 0.234-2.22 0.234-2.22 2.23-4.22 3.31-1.18 6.51-1.16 10-1zm-11 25v5h1v-5h-1z" fill="#FBFCFA"/>
<path transform="translate(990,765)" d="m0 0h3c0.166 0.915 0.166 0.915 0.335 1.85 0.508 2.78 1.02 5.56 1.54 8.34 0.174 0.96 0.348 1.92 0.527 2.91 0.174 0.931 0.348 1.86 0.527 2.82 0.157 0.854 0.314 1.71 0.476 2.59 0.54 2.54 0.54 2.54 1.6 5.01 0.988 2.47 1.51 4.71 1.96 7.33 0.159 0.91 0.317 1.82 0.481 2.76 0.162 0.956 0.325 1.91 0.492 2.9 1.28 7.29 2.67 14.5 4.41 21.7 0.873 3.78 1.52 7.58 2.18 11.4 0.473 2.65 0.473 2.65 1.53 6.05 1.14 4.11 1.57 8.14 1.94 12.4-2.94 0.981-4.99 1.16-8.06 1.19-0.878 0.0142-1.76 0.0284-2.66 0.043-2.28-0.23-2.28-0.23-4.28-2.23-0.562-2.04-0.562-2.04-1-4.54-0.165-0.909-0.33-1.82-0.5-2.76-0.165-0.953-0.33-1.91-0.5-2.89-1.07-6.05-2.28-11.9-4-17.8-0.604-2.8-1.12-5.62-1.62-8.44-0.201-1.1-0.201-1.1-0.406-2.22-0.326-1.78-0.648-3.56-0.969-5.35h-1c-0.704-3.54-1.39-7.08-2.06-10.6-0.199-0.999-0.398-2-0.604-3.03-1.59-8.42-0.833-13.8 2.67-21.7 0.273-0.632 0.547-1.26 0.828-1.92 2.02-4.62 2.02-4.62 3.17-5.77z" fill="#FCFDFB"/>
<path transform="translate(579,504)" d="m0 0c2.87 2.87 2.44 5.86 2.6 9.71 0.0392 0.765 0.0784 1.53 0.119 2.32 0.124 2.45 0.236 4.9 0.346 7.35 0.116 2.44 0.234 4.88 0.357 7.33 0.0758 1.52 0.147 3.04 0.214 4.56 0.163 3.38 0.498 6.47 1.37 9.74 0.336 4.16 0.428 8.33 0.562 12.5 0.0417 1.28 0.0835 2.56 0.126 3.88 0.492 16.2 0.477 32.4 0.311 48.6-0.0086 0.894-0.0172 1.79-0.0261 2.71-0.0567 5.64-0.135 11.3-0.238 16.9-0.0318 1.82-0.059 3.64-0.0814 5.46-0.0332 2.54-0.0853 5.08-0.142 7.63-0.0064 0.752-0.0128 1.5-0.0194 2.28-0.132 4.71-1.04 7.99-3.49 12-4.89 4.51-12.3 6.27-18.5 8.31-0.795 0.267-1.59 0.534-2.41 0.809-5.29 1.65-10.5 2.76-16.1 1.88-3.92-3.92-3.05-10.8-3.06-16.1 0.0206-1.3 0.0412-2.6 0.0625-3.94h1c0.66 3.96 1.32 7.92 2 12h2v3c0.528-0.171 1.06-0.343 1.6-0.519 2.44-0.79 4.89-1.57 7.34-2.36 0.831-0.269 1.66-0.539 2.52-0.816 4.81-1.53 9.6-2.85 14.5-3.88 2.02-0.427 4.01-0.915 6.01-1.43 0.672-19.9 1.11-39.7 1.12-59.6 0.0025-0.882 5e-3 -1.76 0.00757-2.67 0.0218-9.36-0.101-18.7-0.578-28-0.0387-0.769-0.0775-1.54-0.117-2.33-0.188-3.31-0.465-6.53-0.939-9.81-0.591-4.17-0.83-8.31-1.03-12.5-0.043-0.834-0.086-1.67-0.13-2.53-0.135-2.64-0.266-5.28-0.397-7.92-0.0915-1.8-0.183-3.6-0.275-5.4-0.224-4.39-0.444-8.78-0.662-13.2-1.89-0.681-1.89-0.681-4-1-0.66 0.66-1.32 1.32-2 2-6.33 2.32-12.3 3.38-19 3v2h-6c-0.33-0.66-0.66-1.32-1-2 6-2.58 12.1-4.74 18.3-6.69 0.681-0.214 1.36-0.428 2.06-0.649 5.18-1.6 10.2-3.11 15.6-2.66z"/>
<path transform="translate(1104,791)" d="m0 0c0.872 1.38 1.72 2.78 2.56 4.19 0.476 0.777 0.951 1.55 1.44 2.36 1.19 2.94 0.885 4.46-0.00391 7.46-1.9 0.29-1.9 0.29-3.84 0.586-1.7 0.263-3.4 0.526-5.1 0.789-1.25 0.189-1.25 0.189-2.52 0.383-4.04 0.629-8.03 1.32-12 2.25-5.88 1.35-11.8 2.06-17.8 2.85-3.99 0.542-7.87 1.12-11.8 2.16-4.58 1.22-9.2 1.7-13.9 2.17-0.862 0.0947-1.72 0.189-2.61 0.287-2.15 0.222-4.3 0.379-6.45 0.525-0.33-0.33-0.66-0.66-1-1 0.296-5.82 0.787-9.64 5-14 4.33-1.31 8.7-1.76 13.2-2.25 2.39-0.294 4.78-0.591 7.17-0.891 1.72-0.209 1.72-0.209 3.48-0.422 3.39-0.468 6.66-1.16 9.98-1.96 5.15-1.12 10.4-1.66 15.6-2.33 6.26-0.845 12.3-3.51 18.6-3.14z" fill="#FCFDFB"/>
<path transform="translate(984,734)" d="m0 0h3c0.341 2 0.673 4 1 6 0.186 1.11 0.371 2.23 0.562 3.38 1.14 9.48-0.463 14.7-4.62 23.2-0.504 1.07-1.01 2.13-1.53 3.23-3.15 6.64-6.44 13.2-9.79 19.8-2.3 4.78-4.28 9.68-6.23 14.6-1.52 3.83-3.19 7.27-5.4 10.8-0.681 1.33-1.35 2.66-2 4-0.96-1.1-1.92-2.21-2.88-3.31-0.801-0.922-0.801-0.922-1.62-1.86-1.51-1.82-1.51-1.82-3.51-4.82 0.383-3.82 1.75-7.11 3.25-10.6 0.449-1.05 0.897-2.11 1.36-3.2 1.67-3.82 3.4-7.62 5.15-11.4 1.27-2.84 2.45-5.7 3.62-8.58 1.85-4.49 3.91-8.8 6.12-13.1 2.87-5.62 5.23-11.3 7.36-17.2 1.59-3.96 3.78-7.3 6.14-10.8z" fill="#FCFDFB"/>
<path transform="translate(1067,718)" d="m0 0c1.85 0.16 1.85 0.16 4 1 1.31 2.37 1.31 2.37 2.44 5.44 2.21 5.72 4.76 11.1 7.56 16.6 3.54 6.94 6.89 14 10.2 21 1.25 2.71 2.54 5.4 3.85 8.09 0.324 0.671 0.647 1.34 0.981 2.03 0.62 1.28 1.25 2.56 1.88 3.84 1.67 3.49 2.49 6.14 2.13 10-1.27 0.506-2.54 1-3.81 1.5-0.708 0.278-1.42 0.557-2.14 0.844-2.04 0.656-2.04 0.656-5.04 0.656v-2c-1.48-0.495-1.48-0.495-3-1-1.36-2.49-2.55-4.91-3.69-7.5-0.708-1.55-1.42-3.11-2.12-4.66-0.361-0.801-0.722-1.6-1.09-2.43-1.72-3.8-3.5-7.58-5.28-11.4-0.334-0.711-0.667-1.42-1.01-2.15-1.82-3.87-3.68-7.72-5.61-11.5-0.379-0.766-0.758-1.53-1.15-2.32-0.659-1.3-1.35-2.59-2.08-3.86-2.82-5.32-1.64-9.72 0.0391-15.2 0.893-2.41 1.89-4.67 3-7z" fill="#FCFDFB"/>
<path transform="translate(751,826)" d="m0 0c0.0808 1.96 0.139 3.92 0.188 5.88 0.0522 1.64 0.0522 1.64 0.105 3.3-0.0967 0.931-0.193 1.86-0.293 2.82-3.25 2.17-5.03 2.48-8.85 3-1.16 0.165-2.33 0.33-3.53 0.5-1.22 0.165-2.44 0.33-3.69 0.5-8.04 1.11-16 2.33-23.9 4-2.87 0.563-5.75 1.1-8.62 1.62-0.699 0.134-1.4 0.268-2.12 0.406-4.82 0.876-9.35 1.09-14.3 0.969-1.15-2.3-1.27-3.87-1.38-6.44-0.0735-1.17-0.0735-1.17-0.148-2.37 0.523-2.19 0.523-2.19 2.73-3.76 2.79-1.43 4.97-2.07 8.04-2.59 1.53-0.265 1.53-0.265 3.09-0.536 1.09-0.178 2.19-0.356 3.31-0.54 1.13-0.193 2.27-0.386 3.43-0.585 3.62-0.614 7.23-1.21 10.9-1.81 2.43-0.411 4.86-0.822 7.29-1.23 5.42-0.917 10.8-1.83 16.3-2.72 2.02-0.341 4.04-0.718 6.06-1.11 2.45-0.315 2.45-0.315 5.45 0.685z" fill="#FCFDFB"/>
<path transform="translate(1420,661)" d="m0 0c-0.291 0.608-0.583 1.22-0.883 1.84-3 6.42-5.6 12.9-7.97 19.6-1.38 3.81-3 7.14-5.14 10.6-0.719 1.9-1.44 3.79-2.12 5.7-1 2.61-2.14 5.13-3.32 7.67-2.01 4.35-3.83 8.73-5.58 13.2-1.55 3.86-3.26 7.65-4.98 11.4-2.82-0.627-4.54-1.37-6.26-3.74-2.29-4.25-3.16-6.51-1.74-11.3 1.17-3.06 2.45-6.06 3.75-9.06 0.731-1.71 1.46-3.42 2.19-5.13 0.355-0.827 0.709-1.65 1.07-2.5 1.24-2.9 2.46-5.82 3.67-8.74 2.06-4.96 4.13-9.92 6.2-14.9 1.49-3.6 2.95-7.16 4.11-10.9 2.69-3.79 5-3.93 9.43-4.68 2.71-0.136 4.95 0.227 7.57 0.871z" fill="#FCFDFB"/>
<path transform="translate(1349,673)" d="m0 0c0.605 1.26 0.605 1.26 1.22 2.55 0.612 1.25 1.23 2.51 1.84 3.76 0.337 0.689 0.674 1.38 1.02 2.09 2.43 4.87 5.05 9.61 7.79 14.3 0.686 1.19 1.37 2.38 2.06 3.57 1.03 1.78 2.06 3.56 3.12 5.32 5.11 8.52 7.48 14.5 5.3 24.3-0.278 0.719-0.557 1.44-0.844 2.18-0.278 0.745-0.557 1.49-0.844 2.26-0.217 0.534-0.433 1.07-0.656 1.62-2.42-0.368-3.66-0.578-5.23-2.51-0.341-0.647-0.681-1.29-1.03-1.96-0.588-1.09-0.588-1.09-1.19-2.2-0.408-0.788-0.817-1.58-1.24-2.39-0.885-1.65-1.77-3.31-2.66-4.96-0.443-0.836-0.887-1.67-1.34-2.53-1.58-2.94-3.22-5.83-4.87-8.73-12.4-21.8-12.4-21.8-12.4-26.7h-2c-1.86-3.13-2.2-5.37-2-9 4.67-1.21 9.21-1.09 14-1z" fill="#FCFDFB"/>
<path transform="translate(851 865)" d="m0 0c3.42 1.67 6.4 3.92 8.44 7.19-0.0898 2.01-0.0898 2.01-1 4-12.4 11.3-29.5 12.4-45.4 12.3-1.85 0.0242-1.85 0.0242-3.73 0.0488-1.78 9.67e-4 -1.78 9.67e-4 -3.61 0.00195-1.07 0.00298-2.13 0.00596-3.23 0.00903-3.54-0.43-5.98-1.63-9.06-3.37 0.495-1.49 0.495-1.49 1-3h2c0.268-0.742 0.536-1.49 0.812-2.25 1.19-2.76 2.09-4.6 4.19-6.75 2.72-0.406 2.72-0.406 6-0.285 1.8 0.0396 1.8 0.0396 3.63 0.0801 1.26 0.0471 2.51 0.0941 3.81 0.143 16.1 0.698 16.1 0.698 30.5-5.69 3.06-2.25 3.06-2.25 5.62-2.44zm-37.6 10.2v1h8v-1h-8z" fill="#FCFDFB"/>
<path transform="translate(924,772)" d="m0 0c2.58 2.58 3.87 5.57 5.44 8.81 2.03 4.17 4.12 8.24 6.56 12.2 3.65 6.2 7.3 12.4 10.7 18.7 0.941 1.69 1.93 3.35 2.95 5 4.83 8.08 4.83 8.08 4.51 12.5-1.4 4.51-3.44 8-6.19 11.8-3.04-3.61-5.42-7.29-7.72-11.4-0.701-1.25-1.4-2.5-2.11-3.74-0.358-0.636-0.716-1.27-1.09-1.93-1.4-2.46-2.85-4.88-4.31-7.31-1.42-2.37-2.82-4.75-4.22-7.13-0.715-1.2-1.44-2.41-2.16-3.6-4.28-7.05-7.44-12.4-6.4-20.9 0.0374-0.893 0.0748-1.79 0.113-2.71 0.4-4.23 0.742-7.15 3.89-10.3zm-2 4 1 3z" fill="#FAFBF9"/>
<path transform="translate(506 518)" d="m0 0c1.83 0.0309 1.83 0.0309 3.69 0.0625 2.58 6.65 3.67 12.9 4.19 20 0.0804 0.996 0.161 1.99 0.244 3.02 0.651 8.67 0.779 17.3 0.569 26h-2v19h-1v-12h-2c-1.37-11.5-2.45-22.9-3.3-34.4-0.397-5.24-0.869-10.4-1.7-15.6-6.43 1.02-12.8 2.34-19.1 3.94-1.27 0.318-2.54 0.637-3.85 0.965-3.35 0.844-3.35 0.844-5.09 4.1-0.277 2.91-0.277 2.91-0.195 6.2 0.00645 1.21 0.0129 2.42 0.0195 3.66 0.0168 1.26 0.0335 2.53 0.0508 3.83 0.00902 1.27 0.018 2.55 0.0273 3.86 0.0236 3.15 0.0565 6.3 0.0977 9.45h-2c0.165 1.07 0.33 2.14 0.5 3.25 0.712 5.57 0.584 11.1 0.5 16.8h-2c0.14 2.65 0.287 5.29 0.438 7.94 0.0393 0.755 0.0786 1.51 0.119 2.29-0.116 3.69-0.116 3.69 1.44 6.78-0.0909 2.7-0.237 5.37-0.438 8.06-0.0522 0.759-0.104 1.52-0.158 2.3-0.13 1.88-0.267 3.76-0.404 5.64h-2v18h-1c-2.73-18.8-1.89-37.4-1.11-56.3 0.112-2.74 0.221-5.48 0.33-8.21 0.186-4.61 0.385-9.23 0.596-13.8 0.0805-1.77 0.159-3.54 0.235-5.3 0.108-2.47 0.228-4.93 0.352-7.4 0.0303-0.729 0.0605-1.46 0.0917-2.21 0.212-3.93 0.641-7.2 2.51-10.7 4.35-2.74 9.17-4.15 14.1-5.62 0.694-0.217 1.39-0.433 2.1-0.656 5.09-1.57 9.8-2.87 15.1-2.78z"/>
<path transform="translate(750,845)" d="m0 0c2.7 2.7 2.07 9.21 2.11 12.8-1.57e-4 1.82-0.0057 3.65-0.0159 5.47-0.00141 0.967-0.00283 1.93-0.00429 2.93-0.00557 3.07-0.0181 6.13-0.0309 9.2-0.00502 2.09-0.00958 4.18-0.0137 6.26-0.011 5.1-0.0282 10.2-0.0488 15.3-1.42 0.339-2.83 0.671-4.25 1-0.789 0.186-1.58 0.371-2.39 0.562-2.36 0.438-2.36 0.438-6.36 0.438-1.21-2.43-1.13-3.98-1.15-6.69-0.00638-0.974-0.0128-1.95-0.0193-2.95-0.00111-1.06-0.00223-2.11-0.00337-3.2-0.00333-1.08-0.00666-2.16-0.0101-3.27-0.00507-2.29-0.00741-4.57-0.00725-6.86-0.00219-3.51-0.0203-7.02-0.0393-10.5-0.00293-2.22-0.00492-4.43-0.00586-6.65-0.00719-1.06-0.0144-2.11-0.0218-3.2 0.00308-0.974 0.00615-1.95 0.00932-2.95-0.00143-0.86-0.00285-1.72-0.00432-2.61 0.247-2.09 0.247-2.09 2.25-4.09 3.31-1.18 6.51-1.16 10-1z" fill="#FCFDFB"/>
<path transform="translate(1376,730)" d="m0 0c3.81 1.64 5.44 3.5 7.2 7.33 1.75 5.85 1.49 12 1.55 18.1 0.0277 1.44 0.0569 2.88 0.0876 4.31 0.081 4.08 0.126 8.17 0.162 12.2 0.00983 1.04 0.0197 2.08 0.0298 3.15 0.0355 4.62 0.0146 9.23-0.0298 13.9-6.43 0.495-6.43 0.495-13 1-1.14-2.28-1.15-3.61-1.19-6.15-0.0161-0.859-0.0321-1.72-0.0487-2.6-0.0448-3.97-0.0856-7.94-0.109-11.9-0.0164-2.08-0.0436-4.16-0.082-6.24-0.221-12-0.346-22.2 5.43-33.1zm-3 9 1 2z" fill="#FCFDFB"/>
<path transform="translate(1059,743)" d="m0 0c3.52 4.02 5.94 8.81 6.04 14.2-0.63 6.77-2.48 12.6-4.91 19-0.352 0.946-0.704 1.89-1.07 2.87-0.997 2.66-2.02 5.31-3.06 7.95-0.28 0.72-0.561 1.44-0.85 2.18-1.88 4.64-1.88 4.64-4.34 6.26-3.69 0.738-7.05 0.69-10.8 0.562-1.54-3.53-0.51-5.98 0.843-9.43 0.279-0.682 0.558-1.36 0.845-2.07 0.564-1.43 1.13-2.87 1.69-4.3 0.418-1.06 0.418-1.06 0.844-2.15 1.09-2.86 2.03-5.76 2.97-8.67 1.31-4.01 2.86-7.63 4.81-11.4 0.679-1.68 1.34-3.37 2-5.06 1.39-3.54 2.88-6.76 5-9.94z" fill="#FAFBF9"/>
<path transform="translate(750,776)" d="m0 0c1.16 14.7 1.1 29.3 1 44-6.43 0.495-6.43 0.495-13 1-1.71-3.42-1.16-7.33-1.17-11.1-0.00333-0.902-0.00666-1.8-0.0101-2.73-0.00507-1.91-0.00741-3.82-0.00725-5.73-0.00219-2.93-0.0204-5.86-0.0393-8.79-0.00293-1.85-0.00492-3.71-0.00586-5.56-0.00719-0.88-0.0144-1.76-0.0218-2.67 0.0234-6.2 0.0234-6.2 2.25-8.43 4.06-0.991 6.97-0.91 11 0z" fill="#FCFDFB"/>
<path transform="translate(1041,822)" d="m0 0c-0.496 5.66-1.58 9.8-4 15-0.717 1.77-1.43 3.54-2.12 5.31-0.899 2.28-1.78 4.5-2.88 6.69-2.4 0.633-2.4 0.633-5.38 1.12-0.977 0.168-1.95 0.335-2.96 0.508-2.66 0.367-2.66 0.367-5.66 0.367 0.48-4.6 1.39-8.53 3.12-12.8 0.634-1.58 1.23-3.17 1.79-4.77 3.64-10 7.58-12.1 18.1-11.4z" fill="#FCFDFB"/>
<path transform="translate(1114,811)" d="m0 0c1.51 2.65 2.75 5.22 4 8 0.601 1.29 1.2 2.58 1.81 3.86 1.74 3.71 3.47 7.42 5.19 11.1-4.95 0.33-9.9 0.66-15 1v-2h-2c-0.41-0.892-0.82-1.78-1.24-2.7-0.539-1.17-1.08-2.34-1.63-3.55-0.801-1.74-0.801-1.74-1.62-3.52-0.863-1.85-1.75-3.69-2.73-5.48-1.11-2.48-0.491-4.2 0.219-6.75 1.41-0.392 2.83-0.763 4.25-1.12 0.789-0.209 1.58-0.418 2.39-0.633 2.85-0.293 4.02 0.142 6.36 1.76z" fill="#FCFDFB"/>
<path transform="translate(1277,686)" d="m0 0v12c-6.5 2.27-13.1 2.87-20 3-1.74-1.74-1.17-4.08-1.19-6.44-0.0142-0.989-0.0284-1.98-0.043-3 0.23-2.57 0.23-2.57 2.23-4.57 6.42-1.67 12.5-2.48 19-1z" fill="#FCFDFB"/>
<path transform="translate(1319,678)" d="m0 0c1.81 1.81 1.38 4.61 1.56 7.06 0.126 1.66 0.126 1.66 0.254 3.35 0.0606 0.855 0.121 1.71 0.184 2.59-14.2 2.39-14.2 2.39-20 2-1.66-1.66-1.29-3.6-1.38-5.88 0.0686-4.81 0.0686-4.81 2.38-7.19 5.57-1.74 11.2-2.22 17-1.94z" fill="#FCFDFB"/>
<path transform="translate(539,560)" d="m0 0h1c0.942 5.63 1.19 11.1 1.28 16.8 0.0378 1.89 0.0755 3.77 0.113 5.66 0.0539 2.96 0.106 5.91 0.158 8.87 0.0515 2.87 0.109 5.73 0.167 8.6 0.0136 0.892 0.0272 1.78 0.0411 2.7-0.313 3.99-0.313 3.99 1.24 7.34 0.0409 2.33 0.0424 4.67 0 7h-2v29h-1v-10h-2c-0.0232-8.73-0.041-17.5-0.0518-26.2-0.0052-4.05-0.0123-8.11-0.0236-12.2-0.0109-3.92-0.0169-7.83-0.0194-11.7-0.00184-1.49-0.00543-2.98-0.0109-4.47-0.0502-14.4-0.0502-14.4 1.11-21.4z"/>
<path transform="translate(510,664)" d="m0 0c0.99 0.33 1.98 0.66 3 1-0.33 0.99-0.66 1.98-1 3h2c-0.663 2.38-1.49 3.7-3.63 4.97-2.14 0.98-4.3 1.86-6.5 2.72-0.735 0.307-1.47 0.615-2.23 0.932-4.91 1.97-9.36 3.03-14.6 3.38-0.33-0.33-0.66-0.66-1-1-3.2-0.173-5.93 0.0902-9 1-0.33-1.65-0.66-3.3-1-5 0.834-0.0374 1.67-0.0748 2.53-0.113 7.02-0.41 12.9-1.34 19.5-3.89 1.62-0.572 3.25-1.14 4.88-1.69 0.719-0.251 1.44-0.503 2.18-0.762 1.95-0.551 1.95-0.551 4.95-0.551v-4z" fill="#040301"/>
<path transform="translate(1229,695)" d="m0 0h1v23h-1v-23z" fill="#FCFDFB"/>
<path transform="translate(1244,719)" d="m0 0h1v20h-1v-20z"/>
<path transform="translate(628,816)" d="m0 0h1v13h-1v-13z"/>
<path transform="translate(879,382)" d="m0 0h1v12h-1v-12z" fill="#FCFDFB"/>
<path transform="translate(807,889)" d="m0 0h10v1h-10v-1z"/>
<path transform="translate(752,605)" d="m0 0h1v10h-1v-10z"/>
<path transform="translate(751,640)" d="m0 0h1v9h-1v-9z"/>
<path transform="translate(1245,794)" d="m0 0h1v8h-1v-8z"/>
<path transform="translate(988,540)" d="m0 0h1v8h-1v-8z"/>
<path transform="translate(627,702)" d="m0 0h1v7h-1v-7z"/>
<path transform="translate(989,496)" d="m0 0h1v7h-1v-7z"/>
<path transform="translate(1311,373)" d="m0 0h1v6h-1v-6z"/>
<path transform="translate(623,626)" d="m0 0h1v5h-1v-5z"/>
<path transform="translate(990,452)" d="m0 0h1v5h-1v-5z"/>
<path transform="translate(179,887)" d="m0 0c1.49 0.99 1.49 0.99 3 2h-3v-2z"/>
<path transform="translate(535,740)" d="m0 0 4 1z"/>
<path transform="translate(524,740)" d="m0 0 4 1z"/>
<path transform="translate(1373,719)" d="m0 0 1 4z"/>
<path transform="translate(1136,551)" d="m0 0 1 4z"/>
<path transform="translate(669,911)" d="m0 0c3 1 3 1 3 1z"/>
<path transform="translate(1039,796)" d="m0 0c0.33 0.66 0.66 1.32 1 2-0.66-0.33-1.32-0.66-2-1 0.33-0.33 0.66-0.66 1-1z" fill="#545453"/>
<path transform="translate(1367,736)" d="m0 0 2 1-2 1v-2z"/>
<path transform="translate(1388,732)" d="m0 0 2 1-2 1v-2z"/>
<path transform="translate(1159,514)" d="m0 0c3 1 3 1 3 1z"/>
</svg>
