<?xml version="1.0" encoding="UTF-8"?>
<svg xmlns="http://www.w3.org/2000/svg" xmlns:xlink="http://www.w3.org/1999/xlink" width="300px" height="300px" viewBox="0 0 300 300" version="1.1">
<g id="surface1">
<path style=" stroke:none;fill-rule:nonzero;fill:rgb(98.431373%,98.823529%,98.039216%);fill-opacity:1;" d="M 96.9375 106.5 C 97.082031 106.5 97.230469 106.5 97.378906 106.5 C 97.6875 106.5 97.996094 106.5 98.300781 106.5 C 98.765625 106.5 99.226562 106.5 99.6875 106.5 C 102.933594 106.496094 105.40625 106.511719 107.957031 108.730469 C 108.515625 109.207031 109.09375 109.632812 109.695312 110.054688 C 109.820312 110.164062 109.820312 110.164062 109.949219 110.277344 L 109.949219 110.652344 C 110.058594 110.699219 110.171875 110.746094 110.285156 110.796875 C 111.847656 111.667969 112.40625 113.570312 112.949219 115.144531 C 113.078125 115.460938 113.210938 115.777344 113.34375 116.09375 C 113.761719 117.128906 114.007812 118.195312 114.261719 119.261719 C 114.320312 119.515625 114.382812 119.769531 114.441406 120.023438 C 114.507812 120.292969 114.570312 120.5625 114.636719 120.832031 C 114.679688 121.015625 114.679688 121.015625 114.722656 121.199219 C 114.785156 121.460938 114.84375 121.726562 114.902344 121.992188 C 114.980469 122.3125 115.0625 122.636719 115.148438 122.953125 C 115.691406 125.109375 115.726562 127.285156 115.8125 129.480469 C 115.859375 130.613281 115.910156 131.75 115.964844 132.875 C 115.976562 133.136719 115.988281 133.398438 116 133.664062 C 116.136719 136.644531 116.316406 139.625 116.507812 142.605469 C 116.535156 142.992188 116.558594 143.378906 116.582031 143.765625 C 116.628906 144.492188 116.675781 145.214844 116.722656 145.941406 C 116.738281 146.152344 116.75 146.367188 116.765625 146.585938 C 116.710938 148.589844 116.710938 148.589844 117.261719 150.371094 C 117.304688 150.953125 117.339844 151.527344 117.363281 152.105469 C 117.371094 152.285156 117.378906 152.460938 117.386719 152.644531 C 117.464844 154.515625 117.492188 156.394531 117.507812 158.269531 C 117.511719 158.644531 117.515625 159.015625 117.519531 159.386719 C 117.53125 160.378906 117.539062 161.375 117.550781 162.351562 C 117.554688 162.964844 117.5625 163.582031 117.566406 164.195312 C 117.617188 169.632812 117.65625 175.070312 117.660156 180.527344 C 117.660156 180.980469 117.660156 181.433594 117.660156 181.882812 C 117.664062 182.582031 117.664062 183.285156 117.660156 183.980469 C 117.660156 184.355469 117.660156 184.726562 117.664062 185.101562 C 117.65625 188.230469 117.65625 188.230469 117.261719 188.625 C 117.210938 188.992188 117.167969 189.367188 117.132812 189.738281 C 117.109375 189.96875 117.085938 190.199219 117.0625 190.433594 C 117.015625 190.917969 116.96875 191.402344 116.921875 191.886719 C 116.800781 193.085938 116.632812 194.210938 116.324219 195.371094 C 116.195312 196.101562 116.085938 196.832031 115.972656 197.566406 C 115.261719 201.972656 115.261719 201.972656 114.078125 203.246094 C 113.488281 203.445312 113.011719 203.484375 112.390625 203.523438 C 112.171875 203.535156 111.949219 203.550781 111.722656 203.566406 C 111.257812 203.59375 110.789062 203.625 110.324219 203.652344 C 110.101562 203.667969 109.878906 203.683594 109.652344 203.695312 C 109.347656 203.714844 109.347656 203.714844 109.039062 203.734375 C 107.144531 203.976562 105.25 204.996094 103.582031 205.890625 C 103.195312 206.0625 103.195312 206.0625 102.632812 206.0625 C 102.367188 205.535156 102.40625 205.148438 102.445312 204.5625 C 103.089844 202.820312 104.21875 200.644531 105.746094 199.519531 C 107.003906 198.554688 107.621094 196.652344 108.070312 195.1875 L 108.445312 195.1875 C 108.46875 194.96875 108.492188 194.75 108.515625 194.523438 C 108.609375 193.773438 108.789062 193.070312 108.996094 192.347656 C 109.460938 190.628906 109.589844 188.878906 109.714844 187.117188 C 109.757812 186.761719 109.757812 186.761719 109.945312 186.386719 C 109.964844 186 109.96875 185.613281 109.96875 185.226562 C 109.972656 184.871094 109.972656 184.871094 109.972656 184.511719 C 109.972656 184.386719 109.96875 184.261719 109.96875 184.136719 C 109.96875 183.765625 109.96875 183.394531 109.972656 183.027344 C 109.96875 181.695312 109.929688 180.382812 109.757812 179.070312 L 109.570312 179.070312 C 109.542969 178.902344 109.515625 178.738281 109.488281 178.566406 C 108.753906 174.386719 108.753906 174.386719 106.355469 171.085938 C 106.1875 170.957031 106.1875 170.957031 106.015625 170.824219 L 106.015625 170.449219 C 105.789062 170.378906 105.789062 170.378906 105.554688 170.308594 C 105.039062 170.125 104.570312 169.929688 104.078125 169.699219 C 103.351562 169.367188 102.644531 169.171875 101.867188 169.019531 C 101.519531 168.945312 101.519531 168.945312 101.144531 168.761719 C 100.695312 168.738281 100.246094 168.726562 99.796875 168.726562 C 99.554688 168.722656 99.3125 168.71875 99.0625 168.71875 C 98.324219 168.761719 97.722656 168.914062 97.019531 169.136719 C 96.648438 169.21875 96.28125 169.300781 95.914062 169.382812 C 94.976562 169.609375 94.222656 169.941406 93.402344 170.449219 C 93.078125 170.636719 93.078125 170.636719 92.703125 170.636719 C 92.640625 170.820312 92.578125 171.007812 92.515625 171.199219 C 92.265625 171.328125 92.015625 171.453125 91.765625 171.574219 C 91.371094 172 91.003906 172.433594 90.640625 172.886719 L 90.21875 173.398438 C 89.792969 173.914062 89.371094 174.429688 88.953125 174.949219 C 88.828125 175.09375 88.707031 175.238281 88.582031 175.390625 C 85.394531 179.550781 83.273438 185.589844 82.300781 190.691406 C 82.207031 191.066406 82.207031 191.066406 82.023438 191.472656 C 81.792969 192.109375 81.746094 192.671875 81.695312 193.34375 C 81.414062 196.644531 81.109375 199.304688 78.640625 201.761719 C 78.515625 201.949219 78.394531 202.132812 78.265625 202.324219 L 77.890625 202.324219 C 77.828125 202.511719 77.765625 202.695312 77.703125 202.886719 C 75.835938 203.222656 73.972656 202.945312 72.265625 202.136719 C 69.867188 201.320312 67.578125 201.503906 65.101562 201.777344 C 59.460938 202.402344 54.304688 202.707031 49.203125 199.882812 C 49.007812 199.78125 48.8125 199.675781 48.609375 199.566406 C 47.824219 199.148438 47.097656 198.730469 46.398438 198.195312 C 43.734375 196.484375 40.433594 196.394531 37.378906 196.367188 C 37.050781 196.363281 36.722656 196.355469 36.394531 196.351562 C 35.605469 196.335938 34.816406 196.328125 34.03125 196.320312 L 33.84375 195.757812 L 34.09375 195.515625 C 34.386719 195.214844 34.644531 194.910156 34.910156 194.585938 C 36.429688 192.808594 38.324219 191.453125 40.480469 190.535156 C 40.941406 190.328125 41.363281 190.09375 41.796875 189.832031 C 42.660156 189.339844 43.5625 189.070312 44.515625 188.792969 C 44.988281 188.660156 45.445312 188.507812 45.90625 188.34375 C 46.820312 188.035156 47.753906 187.8125 48.683594 187.585938 C 49.25 187.449219 49.808594 187.304688 50.367188 187.140625 C 51.445312 186.839844 52.542969 186.621094 53.628906 186.390625 C 53.964844 186.316406 53.964844 186.316406 54.304688 186.246094 C 54.757812 186.148438 55.210938 186.054688 55.660156 185.957031 C 61.867188 184.957031 61.867188 184.957031 67.585938 182.621094 C 67.753906 182.519531 67.925781 182.417969 68.101562 182.3125 C 68.273438 182.203125 68.445312 182.097656 68.625 181.988281 C 68.800781 181.882812 68.976562 181.777344 69.15625 181.667969 C 69.683594 181.28125 70.011719 180.894531 70.398438 180.371094 C 70.519531 180.226562 70.640625 180.085938 70.765625 179.9375 C 72.070312 178.214844 72.9375 176.296875 73.296875 174.179688 C 73.421875 173.484375 73.660156 172.953125 73.960938 172.3125 C 74.433594 171.105469 74.714844 169.859375 75 168.582031 C 75.175781 167.808594 75.390625 167.0625 75.648438 166.3125 C 75.738281 165.949219 75.828125 165.582031 75.917969 165.210938 C 76.109375 164.421875 76.339844 163.683594 76.644531 162.925781 C 76.835938 162.382812 76.941406 161.828125 77.050781 161.261719 C 77.148438 160.871094 77.148438 160.871094 77.332031 160.523438 C 77.523438 160.121094 77.621094 159.769531 77.710938 159.328125 C 77.742188 159.175781 77.773438 159.023438 77.804688 158.867188 C 77.835938 158.707031 77.867188 158.546875 77.898438 158.378906 C 77.929688 158.210938 77.964844 158.046875 77.996094 157.875 C 78.234375 156.652344 78.417969 155.4375 78.558594 154.199219 C 78.640625 153.617188 78.78125 153.066406 78.929688 152.5 C 79.121094 151.625 79.210938 150.734375 79.316406 149.835938 C 79.363281 149.449219 79.410156 149.0625 79.460938 148.679688 C 79.480469 148.507812 79.5 148.339844 79.519531 148.167969 C 79.585938 147.75 79.585938 147.75 79.777344 147.375 C 80.179688 144.207031 80.199219 140.964844 80.28125 137.777344 C 80.285156 137.609375 80.289062 137.4375 80.292969 137.265625 C 80.339844 135.507812 80.355469 133.757812 80.273438 131.996094 C 80.265625 131.859375 80.257812 131.71875 80.253906 131.578125 C 80.210938 130.835938 80.097656 130.230469 79.777344 129.554688 C 78.65625 129.488281 77.902344 129.632812 76.886719 130.152344 C 76.765625 130.210938 76.644531 130.269531 76.519531 130.332031 C 76.164062 130.507812 75.808594 130.6875 75.457031 130.867188 C 75.117188 131.039062 74.777344 131.210938 74.4375 131.382812 C 74.292969 131.457031 74.144531 131.53125 73.996094 131.605469 C 73.371094 131.90625 72.734375 132.136719 72.082031 132.367188 C 71.820312 132.46875 71.558594 132.570312 71.296875 132.671875 C 70.058594 133.128906 68.671875 133.421875 67.414062 132.878906 C 66.746094 132.332031 66.4375 131.917969 66.277344 131.0625 C 66.0625 128.15625 68.285156 125.027344 69.691406 122.625 C 69.789062 122.460938 69.886719 122.292969 69.984375 122.125 C 70.078125 121.96875 70.167969 121.816406 70.261719 121.65625 C 70.34375 121.519531 70.425781 121.382812 70.511719 121.242188 C 70.757812 120.925781 70.757812 120.925781 71.320312 120.738281 C 71.453125 120.429688 71.574219 120.113281 71.695312 119.800781 C 72.417969 118.785156 73.230469 117.851562 74.132812 116.988281 L 75.070312 116.050781 C 75.214844 115.90625 75.355469 115.761719 75.5 115.609375 C 79.777344 111.390625 84.96875 108.597656 90.820312 107.324219 C 91.566406 107.15625 92.304688 106.972656 93.050781 106.792969 C 94.335938 106.539062 95.621094 106.460938 96.933594 106.464844 Z M 80.511719 131.4375 L 80.511719 133.875 L 80.699219 133.875 L 80.699219 131.4375 Z M 80.511719 135.5625 L 80.511719 138.9375 L 80.699219 138.9375 L 80.699219 135.5625 Z M 79.761719 147.75 L 79.949219 148.3125 Z M 79.574219 149.25 L 79.761719 149.8125 Z M 78.824219 153.5625 L 79.011719 153.9375 Z M 77.886719 158.8125 L 78.074219 159.1875 Z M 75.449219 167.4375 L 75.636719 168 Z M 109.949219 186.75 L 109.949219 188.0625 L 110.136719 188.0625 L 110.136719 186.75 Z M 109.011719 192.75 L 109.199219 193.125 Z M 109.011719 192.75 "/>
<path style=" stroke:none;fill-rule:nonzero;fill:rgb(98.823529%,99.215686%,98.431373%);fill-opacity:1;" d="M 157.875 97.125 C 159.011719 97.132812 159.703125 97.296875 160.613281 97.957031 C 161.578125 98.992188 161.828125 99.890625 161.816406 101.257812 C 161.820312 101.410156 161.820312 101.5625 161.820312 101.71875 C 161.824219 102.039062 161.824219 102.355469 161.820312 102.675781 C 161.816406 103.160156 161.824219 103.644531 161.832031 104.128906 C 161.839844 105.820312 161.792969 107.203125 160.773438 108.628906 L 160.398438 108.628906 C 160.332031 108.808594 160.332031 108.808594 160.257812 108.992188 C 160.023438 109.378906 160.023438 109.378906 159.640625 109.484375 C 159.460938 109.523438 159.460938 109.523438 159.273438 109.566406 C 159.214844 109.75 159.152344 109.9375 159.085938 110.128906 C 158.644531 110.289062 158.234375 110.402344 157.773438 110.503906 C 157.640625 110.53125 157.503906 110.5625 157.367188 110.59375 C 156.164062 110.84375 154.964844 111 153.746094 111.136719 C 152.027344 111.332031 150.316406 111.558594 148.609375 111.8125 C 148.3125 111.855469 148.3125 111.855469 148.007812 111.902344 C 145.289062 112.296875 145.289062 112.296875 143.152344 113.871094 C 143.03125 114.007812 142.90625 114.148438 142.78125 114.292969 C 141.273438 116.449219 141.515625 119.695312 141.910156 122.1875 C 141.996094 122.578125 141.996094 122.578125 142.214844 123.050781 C 142.398438 123.113281 142.585938 123.171875 142.777344 123.238281 L 142.777344 123.613281 C 142.957031 123.671875 143.132812 123.726562 143.316406 123.789062 C 143.902344 123.988281 143.902344 123.988281 144.277344 124.175781 C 145.8125 124.289062 147.238281 124.148438 148.738281 123.839844 C 154.214844 122.71875 154.214844 122.71875 156.089844 123.796875 C 157.140625 124.820312 157.554688 125.765625 157.613281 127.210938 C 157.613281 127.949219 157.605469 128.6875 157.589844 129.421875 C 157.585938 129.648438 157.585938 129.648438 157.578125 129.882812 C 157.566406 130.351562 157.550781 130.824219 157.53125 131.296875 C 157.523438 131.519531 157.523438 131.519531 157.519531 131.746094 C 157.457031 133.0625 157.117188 134.070312 156.230469 135.085938 C 156.128906 135.203125 156.027344 135.320312 155.921875 135.445312 C 154.730469 136.511719 153.558594 136.722656 152.023438 136.9375 C 151.816406 136.96875 151.609375 137 151.398438 137.03125 C 150.417969 137.175781 149.429688 137.3125 148.453125 137.445312 C 146.925781 137.65625 145.492188 137.863281 144.066406 138.464844 C 143.710938 138.609375 143.710938 138.609375 143.335938 138.609375 C 143.289062 138.71875 143.242188 138.828125 143.195312 138.9375 C 142.960938 139.359375 142.960938 139.359375 142.609375 139.6875 C 141.144531 141.242188 141.035156 143.4375 141.003906 145.464844 C 141 145.644531 140.996094 145.824219 140.992188 146.007812 C 140.980469 146.382812 140.976562 146.757812 140.96875 147.132812 C 140.957031 147.710938 140.945312 148.289062 140.929688 148.867188 C 140.921875 149.230469 140.917969 149.597656 140.910156 149.964844 C 140.90625 150.136719 140.902344 150.308594 140.898438 150.488281 C 140.894531 150.644531 140.890625 150.804688 140.890625 150.96875 C 140.886719 151.109375 140.882812 151.25 140.882812 151.394531 C 140.878906 151.757812 140.878906 151.757812 141.089844 152.113281 C 141.121094 152.382812 141.148438 152.660156 141.167969 152.933594 C 141.1875 153.179688 141.1875 153.179688 141.210938 153.429688 C 141.222656 153.605469 141.238281 153.785156 141.253906 153.964844 C 141.386719 155.460938 141.59375 156.851562 142.023438 158.292969 C 142.136719 158.695312 142.25 159.097656 142.359375 159.5 C 142.441406 159.789062 142.519531 160.078125 142.601562 160.367188 C 142.941406 161.578125 143.246094 162.804688 143.542969 164.023438 C 143.695312 164.664062 143.695312 164.664062 143.914062 165.21875 C 144.132812 165.957031 144.167969 166.636719 144.179688 167.394531 C 144.1875 167.53125 144.195312 167.671875 144.203125 167.816406 C 144.214844 168.613281 144.15625 168.894531 143.625 169.519531 C 142.246094 170.472656 140.550781 170.324219 138.957031 170.289062 C 135.054688 170.253906 131.269531 170.726562 127.539062 171.90625 C 126.367188 172.265625 125.230469 172.351562 124.011719 172.164062 C 123.347656 171.769531 123.132812 171.238281 122.921875 170.5 C 122.910156 170.367188 122.898438 170.238281 122.886719 170.101562 L 122.699219 170.101562 C 122.699219 169.996094 122.695312 169.894531 122.695312 169.785156 C 122.671875 168.675781 122.652344 167.574219 122.628906 166.449219 C 122.621094 166.039062 122.613281 165.628906 122.605469 165.214844 C 122.566406 162.964844 122.507812 160.695312 122.417969 158.445312 C 122.320312 155.992188 122.285156 153.535156 122.257812 151.078125 C 122.210938 147.121094 122.15625 143.183594 121.953125 139.246094 C 121.945312 139.09375 121.933594 138.941406 121.925781 138.785156 C 121.859375 137.195312 121.859375 137.195312 121.667969 135.613281 C 121.527344 134.644531 121.554688 133.683594 121.558594 132.691406 C 121.558594 132.476562 121.558594 132.265625 121.5625 132.042969 C 121.574219 129.457031 121.625 126.886719 121.679688 124.300781 C 121.6875 124.039062 121.691406 123.777344 121.695312 123.515625 C 121.71875 122.429688 121.742188 121.34375 121.769531 120.253906 C 121.800781 118.714844 121.835938 117.179688 121.863281 115.640625 C 121.886719 114.550781 121.910156 113.449219 121.933594 112.359375 C 121.949219 111.710938 121.964844 111.0625 121.976562 110.410156 C 121.988281 109.691406 122.007812 108.972656 122.023438 108.253906 C 122.027344 108.042969 122.03125 107.832031 122.035156 107.613281 C 122.066406 106.484375 122.175781 105.660156 122.703125 104.667969 C 122.796875 104.460938 122.894531 104.25 122.996094 104.035156 C 123.300781 103.472656 123.464844 103.441406 124.015625 103.167969 L 124.015625 102.792969 C 124.949219 102.007812 125.984375 101.664062 127.164062 101.445312 C 127.316406 101.414062 127.464844 101.382812 127.621094 101.351562 C 129.105469 101.070312 130.601562 100.925781 132.101562 100.804688 C 132.792969 100.777344 132.792969 100.777344 133.210938 100.542969 C 133.671875 100.476562 134.128906 100.417969 134.59375 100.367188 C 134.871094 100.335938 135.152344 100.300781 135.433594 100.269531 C 135.875 100.21875 136.316406 100.167969 136.761719 100.117188 C 137.1875 100.070312 137.613281 100.019531 138.039062 99.96875 C 138.171875 99.953125 138.304688 99.9375 138.441406 99.921875 C 139.070312 99.898438 139.070312 99.898438 139.585938 99.605469 C 139.953125 99.550781 140.324219 99.507812 140.695312 99.46875 C 140.921875 99.445312 141.148438 99.421875 141.378906 99.398438 C 141.617188 99.375 141.855469 99.347656 142.101562 99.324219 C 142.570312 99.277344 143.039062 99.226562 143.507812 99.175781 C 143.714844 99.15625 143.925781 99.132812 144.140625 99.113281 C 144.640625 99.070312 144.640625 99.070312 145.023438 98.855469 C 145.386719 98.804688 145.75 98.757812 146.117188 98.71875 C 146.335938 98.695312 146.554688 98.671875 146.777344 98.648438 C 147.242188 98.597656 147.703125 98.550781 148.167969 98.5 C 148.492188 98.464844 148.492188 98.464844 148.824219 98.425781 C 149.128906 98.394531 149.128906 98.394531 149.433594 98.363281 C 149.886719 98.339844 149.886719 98.339844 150.085938 98.105469 C 150.554688 98.039062 151.023438 97.980469 151.492188 97.929688 C 151.632812 97.914062 151.773438 97.898438 151.917969 97.882812 C 152.527344 97.8125 153.128906 97.746094 153.734375 97.679688 C 154.175781 97.628906 154.617188 97.582031 155.058594 97.53125 C 155.195312 97.515625 155.332031 97.5 155.476562 97.484375 C 156.351562 97.386719 156.96875 97.117188 157.875 97.085938 Z M 122.25 112.949219 L 122.4375 113.324219 Z M 121.875 134.511719 L 122.0625 134.886719 Z M 122.4375 142.386719 L 122.4375 143.699219 L 122.625 143.699219 L 122.625 142.386719 Z M 122.8125 159.074219 L 122.8125 160.949219 L 123 160.949219 L 123 159.074219 Z M 122.8125 159.074219 "/>
<path style=" stroke:none;fill-rule:nonzero;fill:rgb(98.823529%,99.215686%,98.431373%);fill-opacity:1;" d="M 228.9375 87.5625 C 230.203125 88.703125 230.203125 88.703125 230.257812 89.757812 C 230.261719 90.082031 230.261719 90.40625 230.253906 90.734375 C 230.253906 90.90625 230.253906 91.078125 230.253906 91.261719 C 230.253906 91.628906 230.25 91.992188 230.246094 92.359375 C 230.238281 92.917969 230.238281 93.472656 230.238281 94.03125 C 230.234375 94.390625 230.234375 94.746094 230.230469 95.105469 C 230.230469 95.269531 230.230469 95.433594 230.230469 95.601562 C 230.210938 96.984375 230.179688 98.488281 229.136719 99.503906 C 229.023438 99.621094 228.90625 99.738281 228.792969 99.859375 C 227.507812 100.691406 225.90625 100.855469 224.40625 101.03125 C 224.21875 101.054688 224.035156 101.078125 223.84375 101.101562 C 223.257812 101.175781 222.675781 101.246094 222.089844 101.320312 C 221.503906 101.390625 220.921875 101.464844 220.335938 101.535156 C 219.972656 101.582031 219.613281 101.625 219.25 101.667969 C 216.546875 101.96875 216.546875 101.96875 214.46875 103.601562 C 213.4375 104.984375 213.621094 106.824219 213.632812 108.457031 C 213.632812 108.691406 213.632812 108.925781 213.632812 109.167969 C 213.636719 110.6875 213.636719 110.6875 213.859375 112.1875 C 214.171875 112.445312 214.171875 112.445312 214.609375 112.5625 C 214.855469 112.664062 214.855469 112.664062 215.113281 112.769531 C 216.535156 113.148438 218 112.886719 219.425781 112.664062 C 219.59375 112.640625 219.765625 112.617188 219.941406 112.589844 C 220.617188 112.488281 221.289062 112.386719 221.96875 112.265625 C 224.5 111.875 224.5 111.875 225.566406 112.410156 C 226.140625 112.890625 226.523438 113.367188 226.804688 114.0625 C 226.851562 114.652344 226.851562 114.652344 226.851562 115.347656 C 226.851562 115.472656 226.847656 115.597656 226.847656 115.726562 C 226.847656 115.996094 226.847656 116.261719 226.84375 116.527344 C 226.839844 116.925781 226.839844 117.320312 226.839844 117.71875 C 226.828125 123.417969 226.828125 123.417969 225.539062 124.691406 C 224.171875 125.636719 222.933594 125.8125 221.300781 125.984375 C 221.097656 126.003906 220.894531 126.027344 220.6875 126.050781 C 219.9375 126.136719 219.183594 126.214844 218.4375 126.292969 C 217.613281 126.378906 216.898438 126.5 216.128906 126.800781 C 215.917969 126.867188 215.703125 126.933594 215.484375 127 C 214.445312 127.449219 213.78125 128.5 213.289062 129.476562 C 213.085938 130.128906 213.046875 130.765625 213.015625 131.445312 C 213.011719 131.585938 213.003906 131.734375 212.996094 131.878906 C 212.976562 132.371094 212.960938 132.863281 212.945312 133.355469 C 212.941406 133.542969 212.9375 133.730469 212.929688 133.925781 C 212.914062 134.519531 212.90625 135.113281 212.898438 135.710938 C 212.894531 135.898438 212.890625 136.085938 212.886719 136.277344 C 212.882812 137.425781 212.960938 138.507812 213.507812 139.539062 C 214.269531 140.292969 214.984375 140.53125 216.058594 140.558594 C 216.625 140.542969 217.082031 140.472656 217.628906 140.308594 C 218.75 139.96875 219.9375 139.875 221.078125 139.726562 C 222.453125 139.546875 223.816406 139.371094 225.167969 139.050781 C 226.152344 138.835938 227.265625 138.722656 228.1875 139.179688 C 229.050781 139.871094 229.535156 140.746094 229.714844 141.84375 C 229.761719 142.328125 229.796875 142.8125 229.824219 143.300781 C 229.835938 143.476562 229.847656 143.65625 229.859375 143.835938 C 229.894531 144.402344 229.929688 144.964844 229.960938 145.53125 C 229.984375 145.910156 230.011719 146.289062 230.035156 146.667969 C 230.304688 150.925781 230.304688 150.925781 230.054688 152.085938 C 230.011719 152.300781 230.011719 152.300781 229.96875 152.515625 C 229.902344 152.679688 229.902344 152.679688 229.832031 152.851562 C 229.648438 152.914062 229.460938 152.972656 229.269531 153.039062 C 229.214844 153.15625 229.15625 153.277344 229.097656 153.398438 C 228.753906 154.054688 228.183594 154.132812 227.511719 154.359375 C 226.523438 154.617188 225.523438 154.765625 224.511719 154.902344 C 224.289062 154.933594 224.289062 154.933594 224.066406 154.964844 C 223.933594 154.980469 223.800781 155 223.667969 155.015625 C 223.25 155.089844 223.25 155.089844 222.8125 155.285156 C 222.300781 155.484375 221.851562 155.5625 221.308594 155.625 C 221.117188 155.648438 220.929688 155.671875 220.734375 155.695312 C 220.4375 155.730469 220.4375 155.730469 220.136719 155.765625 C 219.746094 155.8125 219.355469 155.859375 218.964844 155.90625 C 218.707031 155.9375 218.707031 155.9375 218.441406 155.96875 C 218.011719 156.015625 218.011719 156.015625 217.644531 156.222656 C 217.367188 156.257812 217.089844 156.289062 216.8125 156.308594 C 216.558594 156.332031 216.558594 156.332031 216.292969 156.355469 C 216.109375 156.367188 215.921875 156.382812 215.730469 156.398438 C 215.542969 156.414062 215.351562 156.429688 215.15625 156.445312 C 214.339844 156.515625 213.523438 156.582031 212.71875 156.648438 C 212.125 156.699219 211.53125 156.75 210.9375 156.796875 C 210.75 156.8125 210.566406 156.828125 210.375 156.84375 C 210.117188 156.863281 210.117188 156.863281 209.855469 156.886719 C 209.703125 156.898438 209.550781 156.910156 209.398438 156.925781 C 209.011719 156.957031 209.011719 156.957031 208.652344 157.164062 C 206.914062 157.445312 205.109375 157.386719 203.363281 157.386719 C 202.863281 157.386719 202.363281 157.390625 201.859375 157.394531 C 201.539062 157.394531 201.21875 157.394531 200.898438 157.394531 C 200.75 157.394531 200.601562 157.394531 200.449219 157.398438 C 199.492188 157.394531 198.734375 157.335938 198.011719 156.671875 C 197.917969 156.558594 197.828125 156.445312 197.734375 156.332031 C 197.640625 156.21875 197.546875 156.109375 197.449219 155.992188 C 196.882812 155.191406 197.007812 154.292969 197.015625 153.367188 C 197.015625 153.078125 197.015625 153.078125 197.015625 152.78125 C 197.019531 152.054688 197.023438 151.332031 197.03125 150.605469 C 197.03125 150.382812 197.03125 150.382812 197.035156 150.15625 C 197.054688 147.792969 197.074219 145.449219 197.101562 143.085938 C 197.109375 142.113281 197.121094 141.136719 197.128906 140.164062 C 197.136719 139.394531 197.144531 138.628906 197.152344 137.855469 C 197.15625 137.496094 197.160156 137.136719 197.164062 136.777344 C 197.183594 134.585938 197.242188 132.371094 197.332031 130.179688 C 197.425781 127.835938 197.484375 125.472656 197.539062 123.128906 C 197.550781 122.644531 197.566406 122.15625 197.578125 121.671875 C 197.601562 120.65625 197.625 119.648438 197.648438 118.632812 C 197.675781 117.492188 197.707031 116.347656 197.734375 115.203125 C 197.761719 114.078125 197.789062 112.953125 197.816406 111.828125 C 197.828125 111.332031 197.839844 110.835938 197.851562 110.34375 C 197.917969 107.660156 197.976562 104.960938 198.015625 102.28125 C 198.019531 102.046875 198.023438 101.8125 198.027344 101.570312 C 198.042969 100.460938 198.058594 99.355469 198.070312 98.230469 C 198.078125 97.839844 198.082031 97.445312 198.089844 97.050781 C 198.089844 96.875 198.089844 96.699219 198.09375 96.519531 C 198.117188 94.953125 198.230469 93.125 199.398438 91.980469 C 200.996094 90.769531 202.585938 90.574219 204.5 90.363281 C 204.898438 90.320312 205.300781 90.273438 205.699219 90.226562 C 206.0625 90.183594 206.421875 90.144531 206.78125 90.101562 C 207.320312 90.054688 207.320312 90.054688 207.710938 89.835938 C 208.070312 89.785156 208.429688 89.746094 208.789062 89.707031 C 209.007812 89.6875 209.226562 89.664062 209.453125 89.640625 C 209.910156 89.589844 210.371094 89.542969 210.828125 89.5 C 211.941406 89.378906 213.023438 89.234375 214.109375 89 C 215.382812 88.753906 216.679688 88.605469 217.953125 88.429688 C 218.246094 88.390625 218.539062 88.347656 218.832031 88.308594 C 219.953125 88.15625 221.0625 88 222.1875 87.855469 C 222.316406 87.839844 222.441406 87.820312 222.574219 87.804688 C 222.914062 87.757812 223.257812 87.714844 223.597656 87.671875 C 224.164062 87.589844 224.71875 87.488281 225.277344 87.375 C 226.546875 87.140625 227.789062 86.945312 228.972656 87.527344 Z M 197.8125 119.625 L 197.8125 120.75 L 198 120.75 L 198 119.625 Z M 197.4375 133.125 L 197.4375 136.125 L 197.625 136.125 L 197.625 133.125 Z M 197.25 150.5625 L 197.4375 150.9375 Z M 197.25 150.5625 "/>
<path style=" stroke:none;fill-rule:nonzero;fill:rgb(98.823529%,99.215686%,98.431373%);fill-opacity:1;" d="M 260.25 86.8125 C 260.773438 87.285156 261.097656 87.679688 261.269531 88.382812 L 261.644531 88.382812 C 262.742188 90.503906 263.671875 92.472656 264.007812 94.871094 C 264.058594 95.328125 264.058594 95.328125 264.269531 95.703125 C 264.492188 97.453125 264.484375 99.226562 264.480469 100.988281 C 264.480469 101.417969 264.480469 101.84375 264.480469 102.269531 C 264.484375 105.53125 264.484375 105.53125 264.265625 107.125 C 264.207031 107.1875 264.144531 107.25 264.078125 107.3125 C 264.023438 107.6875 263.96875 108.058594 263.921875 108.433594 C 263.46875 111.792969 262.332031 114.867188 260.320312 117.621094 L 259.945312 117.621094 C 259.890625 117.769531 259.835938 117.917969 259.78125 118.070312 C 259.570312 118.558594 259.570312 118.558594 259.195312 118.933594 C 259.070312 119.945312 259.183594 120.902344 259.464844 121.878906 C 259.652344 122.625 259.738281 123.390625 259.839844 124.148438 C 259.933594 124.734375 259.933594 124.734375 260.128906 125.277344 C 260.363281 125.992188 260.484375 126.703125 260.601562 127.453125 C 260.726562 128.214844 260.855469 128.957031 261.070312 129.703125 C 261.339844 130.660156 261.464844 131.632812 261.609375 132.609375 C 261.628906 132.757812 261.652344 132.910156 261.675781 133.0625 C 261.695312 133.195312 261.714844 133.332031 261.734375 133.46875 C 261.820312 133.957031 261.820312 133.957031 262.007812 134.546875 C 262.199219 135.246094 262.304688 135.910156 262.390625 136.628906 C 262.414062 136.820312 262.414062 136.820312 262.4375 137.015625 C 262.488281 137.414062 262.535156 137.8125 262.582031 138.214844 C 262.632812 138.617188 262.679688 139.023438 262.730469 139.425781 C 262.773438 139.789062 262.820312 140.152344 262.863281 140.515625 C 262.890625 141.03125 262.890625 141.03125 263.132812 141.238281 C 263.328125 143.824219 262.972656 146.113281 261.257812 148.175781 C 259.820312 149.625 258.539062 150.257812 256.515625 150.277344 C 256.347656 150.277344 256.183594 150.277344 256.007812 150.277344 C 255.84375 150.277344 255.675781 150.28125 255.503906 150.28125 C 254.179688 150.285156 253.402344 150.082031 252.351562 149.230469 C 251.417969 148.246094 251.136719 147.296875 250.90625 146.003906 C 250.875 145.839844 250.84375 145.675781 250.8125 145.503906 C 250.585938 144.277344 250.429688 143.066406 250.378906 141.808594 L 250.191406 141.808594 C 250.171875 141.597656 250.148438 141.386719 250.128906 141.167969 C 250.050781 140.375 249.972656 139.582031 249.890625 138.789062 C 249.859375 138.445312 249.824219 138.101562 249.792969 137.761719 C 249.566406 135.363281 249.566406 135.363281 249.148438 133 C 249.007812 132.335938 248.933594 131.667969 248.855469 130.992188 C 248.839844 130.859375 248.824219 130.722656 248.804688 130.585938 C 248.765625 130.261719 248.730469 129.933594 248.691406 129.609375 L 248.503906 129.609375 C 248.488281 129.492188 248.472656 129.378906 248.457031 129.261719 C 248.390625 128.734375 248.316406 128.210938 248.246094 127.6875 C 248.222656 127.503906 248.199219 127.324219 248.175781 127.136719 L 248.101562 126.605469 C 248.078125 126.445312 248.058594 126.285156 248.035156 126.121094 C 247.941406 125.667969 247.792969 125.324219 247.566406 124.921875 C 246.621094 124.835938 246.621094 124.835938 245.808594 125.261719 C 245.269531 125.992188 245.285156 126.628906 245.261719 127.511719 C 245.257812 127.644531 245.257812 127.777344 245.253906 127.917969 C 245.242188 128.367188 245.230469 128.820312 245.222656 129.273438 C 245.214844 129.597656 245.207031 129.921875 245.199219 130.246094 C 245.148438 132.4375 245.113281 134.632812 245.082031 136.824219 C 245.078125 137.097656 245.074219 137.367188 245.070312 137.636719 C 245.050781 138.847656 245.035156 140.054688 245.019531 141.273438 C 245.015625 141.660156 245.007812 142.046875 245.003906 142.433594 C 244.996094 142.910156 244.992188 143.386719 244.984375 143.863281 C 244.917969 148.476562 244.917969 148.476562 243.5 150.011719 C 243.179688 150.296875 242.855469 150.550781 242.503906 150.796875 C 242.335938 150.921875 242.164062 151.046875 241.992188 151.175781 C 241.300781 151.59375 240.683594 151.785156 239.910156 151.96875 C 239.785156 152 239.660156 152.035156 239.527344 152.066406 C 238.089844 152.414062 236.714844 152.476562 235.386719 151.734375 C 234.292969 150.925781 233.820312 150.042969 233.511719 148.734375 L 233.324219 148.734375 C 233.179688 147.960938 233.109375 147.226562 233.105469 146.445312 C 233.105469 146.210938 233.101562 145.976562 233.101562 145.738281 C 233.097656 145.476562 233.097656 145.21875 233.097656 144.957031 C 233.097656 144.675781 233.09375 144.394531 233.09375 144.113281 C 233.089844 143.164062 233.089844 142.222656 233.089844 141.265625 C 233.089844 141.097656 233.089844 140.933594 233.089844 140.765625 C 233.078125 132.382812 233.28125 124 233.480469 115.640625 C 233.488281 115.445312 233.488281 115.445312 233.492188 115.242188 C 233.5 114.851562 233.511719 114.457031 233.519531 114.0625 C 233.523438 113.933594 233.527344 113.804688 233.527344 113.671875 C 233.542969 113.023438 233.558594 112.378906 233.574219 111.738281 C 233.644531 108.871094 233.707031 105.984375 233.753906 103.113281 C 233.753906 102.980469 233.757812 102.851562 233.757812 102.710938 C 233.78125 101.320312 233.800781 99.917969 233.816406 98.53125 C 233.824219 98.085938 233.832031 97.640625 233.835938 97.191406 C 233.839844 96.988281 233.839844 96.785156 233.84375 96.570312 C 233.847656 96.292969 233.847656 96.292969 233.851562 96.007812 C 233.855469 95.847656 233.855469 95.6875 233.859375 95.519531 C 233.886719 95.132812 233.886719 95.132812 234.074219 94.757812 C 234.089844 94.390625 234.09375 94.019531 234.09375 93.652344 C 234.097656 93.425781 234.097656 93.199219 234.101562 92.96875 C 234.105469 92.496094 234.109375 92.023438 234.105469 91.554688 C 234.132812 89.910156 234.433594 88.628906 235.386719 87.257812 C 236.664062 86.121094 238.160156 85.53125 239.847656 85.367188 C 239.984375 85.351562 240.117188 85.335938 240.257812 85.320312 C 240.683594 85.269531 241.109375 85.226562 241.535156 85.179688 C 241.964844 85.132812 242.390625 85.085938 242.820312 85.035156 C 243.085938 85.007812 243.351562 84.976562 243.617188 84.949219 C 244.304688 84.878906 244.304688 84.878906 244.945312 84.640625 C 250.363281 83.726562 255.78125 83.148438 260.246094 86.816406 Z M 234 95.136719 L 234 100.761719 L 234.1875 100.761719 L 234.1875 95.136719 Z M 246.113281 97.988281 C 245.363281 99.28125 245.574219 101.101562 245.546875 102.5625 C 245.542969 102.804688 245.539062 103.046875 245.535156 103.296875 C 245.523438 103.804688 245.515625 104.3125 245.507812 104.820312 C 245.496094 105.472656 245.480469 106.125 245.464844 106.773438 C 245.453125 107.394531 245.441406 108.019531 245.429688 108.644531 C 245.425781 108.875 245.421875 109.109375 245.414062 109.351562 C 245.410156 109.566406 245.40625 109.78125 245.40625 110.007812 C 245.402344 110.199219 245.398438 110.386719 245.394531 110.582031 C 245.433594 111.105469 245.511719 111.40625 245.808594 111.835938 C 246.820312 112.171875 247.738281 112.128906 248.753906 111.789062 C 250.492188 110.867188 251.472656 109.921875 252.183594 108.074219 C 252.589844 106.59375 252.59375 105.074219 252.605469 103.539062 C 252.605469 103.367188 252.609375 103.195312 252.609375 103.019531 C 252.601562 101.105469 252.378906 99.136719 251.011719 97.691406 C 249.417969 96.75 247.523438 96.679688 246.117188 97.984375 Z M 233.8125 106.386719 L 233.8125 107.699219 L 234 107.699219 L 234 106.386719 Z M 233.4375 122.699219 L 233.4375 124.574219 L 233.625 124.574219 L 233.625 122.699219 Z M 233.25 131.886719 L 233.25 133.199219 L 233.4375 133.199219 L 233.4375 131.886719 Z M 249.375 133.761719 L 249.5625 134.136719 Z M 250.125 139.199219 L 250.3125 139.574219 Z M 233.25 145.761719 L 233.4375 146.136719 Z M 233.25 146.511719 L 233.25 147.636719 L 233.4375 147.636719 L 233.4375 146.511719 Z M 233.25 146.511719 "/>
<path style=" stroke:none;fill-rule:nonzero;fill:rgb(98.823529%,99.215686%,98.431373%);fill-opacity:1;" d="M 193.5 93 C 193.9375 93.347656 194.109375 93.664062 194.214844 94.210938 L 194.589844 94.210938 C 194.816406 94.890625 194.8125 95.527344 194.816406 96.234375 C 194.816406 96.378906 194.820312 96.523438 194.820312 96.671875 C 194.820312 96.980469 194.824219 97.285156 194.824219 97.59375 C 194.824219 98.054688 194.832031 98.519531 194.835938 98.980469 C 194.847656 100.535156 194.828125 101.945312 194.214844 103.386719 L 193.839844 103.386719 C 193.792969 103.53125 193.746094 103.671875 193.695312 103.820312 C 193.300781 104.6875 192.613281 105.042969 191.785156 105.449219 C 191.070312 105.679688 190.367188 105.867188 189.648438 106.039062 C 189.035156 106.1875 188.445312 106.347656 187.855469 106.574219 C 187.644531 106.917969 187.644531 106.917969 187.480469 107.324219 C 187.335938 107.453125 187.1875 107.578125 187.035156 107.710938 C 185.878906 109.003906 185.679688 110.671875 185.660156 112.359375 C 185.652344 112.648438 185.652344 112.648438 185.644531 112.945312 C 185.632812 113.359375 185.625 113.773438 185.617188 114.1875 C 185.605469 114.832031 185.589844 115.480469 185.570312 116.117188 C 185.535156 117.414062 185.507812 118.707031 185.480469 120 C 185.46875 120.523438 185.457031 121.050781 185.445312 121.578125 C 185.414062 122.984375 185.382812 124.390625 185.351562 125.796875 C 185.332031 126.816406 185.308594 127.839844 185.285156 128.871094 C 185.15625 134.625 185.035156 140.402344 184.992188 146.15625 C 184.988281 146.546875 184.984375 146.9375 184.980469 147.328125 C 184.96875 148.90625 184.960938 150.476562 184.960938 152.070312 C 184.960938 152.691406 184.957031 153.3125 184.953125 153.933594 C 184.949219 154.214844 184.949219 154.492188 184.953125 154.773438 C 184.964844 156.640625 184.796875 158.222656 183.636719 159.742188 C 183.199219 160.164062 183.011719 160.339844 182.417969 160.386719 L 182.417969 160.761719 C 181.355469 161.164062 181.355469 161.164062 180.917969 161.324219 C 180.757812 161.390625 180.601562 161.457031 180.4375 161.527344 C 179.511719 161.773438 178.617188 161.765625 177.664062 161.769531 C 177.476562 161.773438 177.285156 161.777344 177.09375 161.785156 C 175.84375 161.789062 175.046875 161.597656 173.980469 160.949219 L 173.980469 160.574219 C 173.792969 160.511719 173.609375 160.449219 173.417969 160.386719 C 172.585938 159.121094 172.570312 158.0625 172.609375 156.582031 C 172.613281 156.347656 172.617188 156.121094 172.621094 155.882812 C 172.628906 155.253906 172.640625 154.621094 172.65625 153.992188 C 172.667969 153.316406 172.679688 152.644531 172.6875 151.964844 C 172.707031 150.664062 172.734375 149.359375 172.757812 148.066406 C 172.789062 146.566406 172.8125 145.066406 172.839844 143.566406 C 172.964844 135.878906 173.121094 128.191406 173.3125 120.503906 C 173.34375 119.363281 173.367188 118.234375 173.390625 117.089844 C 173.410156 116.242188 173.433594 115.398438 173.460938 114.558594 C 173.46875 114.136719 173.476562 113.714844 173.484375 113.296875 C 173.492188 113.113281 173.5 112.929688 173.507812 112.742188 C 173.523438 111.488281 173.222656 110.605469 172.480469 109.59375 C 171.574219 108.753906 170.761719 108.738281 169.59375 108.738281 C 168.253906 108.730469 167.175781 108.679688 166.105469 107.777344 C 166.015625 107.667969 165.925781 107.558594 165.835938 107.449219 C 165.742188 107.339844 165.648438 107.234375 165.554688 107.121094 C 165.351562 106.78125 165.351562 106.78125 165.351562 106.03125 L 164.976562 106.03125 C 164.953125 105.15625 164.9375 104.28125 164.925781 103.40625 C 164.921875 103.109375 164.914062 102.8125 164.90625 102.515625 C 164.859375 100.730469 164.859375 99.308594 165.917969 97.773438 C 166.035156 97.59375 166.035156 97.59375 166.15625 97.410156 C 167.203125 96.007812 168.722656 95.347656 170.410156 95.085938 C 171.226562 94.980469 172.042969 94.890625 172.867188 94.804688 C 173.371094 94.75 173.875 94.691406 174.378906 94.632812 C 174.6875 94.597656 175 94.5625 175.3125 94.53125 C 176.074219 94.460938 176.074219 94.460938 176.792969 94.207031 C 177.058594 94.167969 177.324219 94.136719 177.59375 94.113281 C 177.75 94.097656 177.910156 94.082031 178.070312 94.066406 L 179.074219 93.972656 C 179.230469 93.957031 179.386719 93.941406 179.550781 93.925781 C 179.695312 93.914062 179.84375 93.898438 179.988281 93.886719 C 180.367188 93.847656 180.367188 93.847656 180.730469 93.644531 C 181.023438 93.597656 181.316406 93.5625 181.613281 93.53125 C 181.796875 93.507812 181.980469 93.488281 182.171875 93.464844 C 182.371094 93.445312 182.570312 93.421875 182.777344 93.398438 C 184.785156 93.167969 186.773438 92.890625 188.757812 92.570312 C 191.984375 92.070312 191.984375 92.070312 193.503906 92.996094 Z M 165.1875 99.636719 L 165.375 100.199219 Z M 173.4375 122.699219 L 173.4375 125.511719 L 173.625 125.511719 L 173.625 122.699219 Z M 173.4375 122.699219 "/>
<path style=" stroke:none;fill-rule:nonzero;fill:rgb(96.470588%,86.27451%,32.941176%);fill-opacity:1;" d="M 107.25 121.875 C 107.976562 122.398438 108.554688 122.851562 108.84375 123.714844 C 109.199219 123.828125 109.199219 123.828125 109.59375 123.902344 C 109.78125 124.027344 109.964844 124.148438 110.15625 124.277344 L 110.15625 125.027344 L 110.53125 125.027344 C 110.960938 125.507812 111.09375 125.679688 111.09375 126.339844 L 111.65625 126.339844 C 111.980469 127.492188 112.023438 128.34375 111.84375 129.527344 C 111.898438 129.777344 111.964844 130.027344 112.03125 130.277344 C 112.414062 133.726562 112.195312 137.269531 112.09375 140.738281 C 112.070312 141.527344 112.050781 142.316406 112.03125 143.101562 C 112.015625 143.71875 112 144.332031 111.980469 144.949219 C 111.972656 145.242188 111.964844 145.53125 111.957031 145.824219 C 111.921875 147.359375 111.851562 148.84375 111.46875 150.34375 C 111.292969 149.777344 111.273438 149.617188 111.46875 149.03125 L 111.09375 149.03125 C 111.042969 149.261719 110.992188 149.496094 110.941406 149.734375 C 110.824219 150.265625 110.699219 150.792969 110.554688 151.316406 C 110.472656 151.617188 110.472656 151.617188 110.390625 151.925781 C 110.335938 152.113281 110.285156 152.304688 110.230469 152.5 C 110.195312 152.730469 110.195312 152.730469 110.15625 152.96875 C 110.28125 153.09375 110.402344 153.214844 110.53125 153.34375 C 110.40625 153.652344 110.285156 153.960938 110.15625 154.28125 L 109.78125 154.28125 C 109.71875 154.464844 109.65625 154.652344 109.59375 154.84375 C 109.410156 154.90625 109.222656 154.96875 109.03125 155.03125 C 108.804688 155.5 108.804688 155.5 108.65625 155.96875 L 108.09375 155.96875 C 108.078125 156.070312 108.0625 156.167969 108.046875 156.273438 C 107.820312 156.984375 107.464844 157.640625 106.832031 158.058594 C 106.273438 158.265625 105.769531 158.292969 105.175781 158.324219 C 104.53125 158.359375 104.019531 158.386719 103.40625 158.59375 L 103.40625 158.21875 C 100.441406 158.3125 100.441406 158.3125 97.40625 158.40625 L 97.40625 158.78125 C 97.527344 158.84375 97.652344 158.90625 97.78125 158.96875 C 97.078125 159.433594 96.703125 159.382812 95.867188 159.367188 C 95.628906 159.363281 95.390625 159.359375 95.144531 159.355469 C 94.960938 159.351562 94.777344 159.347656 94.589844 159.34375 C 94.628906 159.457031 94.664062 159.574219 94.707031 159.695312 C 94.730469 159.824219 94.753906 159.957031 94.777344 160.09375 C 94.652344 160.214844 94.527344 160.339844 94.402344 160.46875 C 94.339844 160.34375 94.277344 160.21875 94.214844 160.09375 C 93.410156 160.152344 92.605469 160.214844 91.777344 160.28125 L 91.777344 160.65625 C 90.402344 160.742188 89.449219 160.484375 88.214844 159.90625 L 88.214844 159.53125 C 87.640625 159.339844 87.640625 159.339844 87.089844 159.53125 C 86.996094 159.160156 86.996094 159.160156 86.902344 158.78125 L 86.527344 158.78125 C 86.265625 158.453125 86.046875 158.105469 85.816406 157.753906 C 85.703125 157.613281 85.703125 157.613281 85.589844 157.46875 L 85.214844 157.46875 C 85.128906 157.285156 85.042969 157.101562 84.953125 156.914062 C 84.714844 156.328125 84.714844 156.328125 84.277344 156.15625 C 84.316406 155.945312 84.351562 155.738281 84.394531 155.519531 C 84.429688 155.183594 84.429688 155.183594 84.464844 154.84375 C 84.339844 154.71875 84.214844 154.59375 84.089844 154.46875 C 83.675781 153.847656 83.664062 153.683594 83.714844 152.96875 C 83.746094 152.835938 83.777344 152.707031 83.808594 152.570312 C 83.957031 151.6875 83.902344 150.800781 83.878906 149.910156 C 83.863281 149.027344 83.96875 148.371094 84.277344 147.527344 C 84.214844 147.402344 84.152344 147.28125 84.089844 147.152344 C 84.082031 146.714844 84.082031 146.277344 84.089844 145.839844 L 84.464844 145.839844 C 84.527344 145.160156 84.585938 144.480469 84.652344 143.777344 L 84.277344 143.777344 L 84.277344 142.839844 L 84.652344 142.839844 C 84.707031 140.460938 84.707031 140.460938 84.546875 138.078125 C 84.445312 136.996094 84.480469 135.941406 84.523438 134.851562 C 84.527344 134.667969 84.535156 134.480469 84.542969 134.289062 C 84.550781 134.117188 84.558594 133.941406 84.566406 133.761719 C 84.574219 133.605469 84.582031 133.445312 84.589844 133.285156 C 84.652344 132.894531 84.652344 132.894531 85.027344 132.519531 C 85.070312 132.148438 85.070312 132.148438 85.050781 131.746094 C 85.039062 131.386719 85.039062 131.386719 85.027344 131.019531 L 85.589844 131.019531 C 85.605469 130.90625 85.625 130.792969 85.644531 130.675781 C 85.773438 129.984375 85.890625 129.445312 86.28125 128.851562 C 86.875 128.484375 87.335938 128.546875 88.023438 128.582031 L 88.398438 128.394531 L 88.398438 127.832031 C 89.050781 126.890625 89.578125 126.523438 90.648438 126.144531 C 90.722656 126.238281 90.792969 126.328125 90.867188 126.421875 C 91.339844 126.8125 91.628906 126.769531 92.234375 126.753906 C 92.429688 126.75 92.628906 126.746094 92.835938 126.738281 C 94.507812 126.746094 94.507812 126.746094 96.097656 126.332031 L 96.097656 125.957031 C 96.613281 125.5 97.140625 125.253906 97.785156 125.019531 L 97.785156 125.394531 C 98.253906 125.25 98.253906 125.25 98.722656 125.019531 C 98.816406 124.742188 98.816406 124.742188 98.910156 124.457031 C 99.035156 124.394531 99.15625 124.332031 99.285156 124.269531 C 99.347656 124.144531 99.410156 124.023438 99.472656 123.894531 C 100.433594 123.25 101.136719 123.039062 102.285156 122.957031 L 102.285156 122.207031 C 103.890625 121.601562 105.601562 121.304688 107.253906 121.867188 Z M 107.25 121.875 "/>
<path style=" stroke:none;fill-rule:nonzero;fill:rgb(98.823529%,99.215686%,98.431373%);fill-opacity:1;" d="M 214.125 162.9375 C 214.398438 163.207031 214.398438 163.207031 214.675781 163.582031 C 214.789062 163.730469 214.898438 163.878906 215.011719 164.035156 C 215.152344 164.230469 215.292969 164.425781 215.4375 164.625 C 215.640625 164.90625 215.84375 165.183594 216.046875 165.460938 C 216.566406 166.183594 217.089844 166.90625 217.609375 167.636719 C 217.796875 167.898438 217.992188 168.152344 218.191406 168.402344 C 218.4375 168.753906 218.4375 168.753906 218.4375 169.128906 L 218.8125 169.128906 C 219.046875 169.4375 219.046875 169.4375 219.316406 169.867188 C 219.832031 170.671875 220.398438 171.417969 221.003906 172.15625 C 221.25 172.5 221.25 172.5 221.25 172.875 L 221.625 172.875 C 221.867188 173.195312 221.867188 173.195312 222.140625 173.625 C 222.5 174.183594 222.863281 174.730469 223.265625 175.257812 C 224.429688 176.789062 225.554688 178.351562 226.585938 179.980469 C 227.039062 180.625 227.558594 181.210938 228.082031 181.800781 C 228.433594 182.367188 228.421875 182.730469 228.371094 183.386719 C 227.597656 183.578125 226.914062 183.675781 226.121094 183.574219 C 225.242188 182.929688 224.679688 182.070312 224.074219 181.171875 C 223.566406 180.414062 223.023438 179.679688 222.476562 178.941406 C 222.242188 178.625 222.007812 178.308594 221.773438 177.988281 C 221.652344 177.828125 221.53125 177.664062 221.410156 177.5 C 221.058594 177.023438 220.707031 176.546875 220.359375 176.070312 C 219.410156 174.777344 218.464844 173.484375 217.46875 172.207031 C 216.710938 171.230469 215.980469 170.238281 215.257812 169.226562 C 215.101562 169.011719 215.101562 169.011719 214.945312 168.796875 C 214.402344 168.039062 213.875 167.273438 213.359375 166.488281 C 213.175781 166.234375 212.988281 165.980469 212.796875 165.726562 C 212.703125 165.601562 212.609375 165.472656 212.507812 165.34375 C 212.277344 165.046875 212.027344 164.765625 211.777344 164.484375 C 211.484375 164.054688 211.484375 164.054688 211.53125 163.527344 C 211.578125 163.390625 211.625 163.257812 211.671875 163.117188 C 211.9375 163.046875 212.203125 162.980469 212.46875 162.917969 C 212.617188 162.878906 212.765625 162.84375 212.917969 162.804688 C 213.398438 162.734375 213.660156 162.746094 214.109375 162.929688 Z M 214.125 162.9375 "/>
<path style=" stroke:none;fill-rule:nonzero;fill:rgb(98.823529%,99.215686%,98.431373%);fill-opacity:1;" d="M 170.25 169.875 C 171.207031 170.722656 172.011719 171.707031 172.199219 173.007812 C 172.21875 173.980469 172.070312 174.847656 171.851562 175.800781 C 171.6875 176.566406 171.582031 177.34375 171.472656 178.125 C 171.34375 179.042969 171.207031 179.957031 171.019531 180.863281 C 170.730469 182.265625 170.503906 183.675781 170.265625 185.101562 C 169.945312 186.992188 169.613281 188.90625 169.253906 190.800781 C 169.082031 191.707031 168.917969 192.613281 168.753906 193.519531 C 168.160156 193.652344 167.617188 193.730469 167.007812 193.71875 C 166.664062 193.710938 166.664062 193.710938 166.316406 193.707031 C 166.085938 193.015625 166.183594 192.632812 166.308594 191.917969 C 166.328125 191.796875 166.351562 191.675781 166.371094 191.554688 C 166.4375 191.167969 166.503906 190.785156 166.574219 190.398438 C 166.660156 189.898438 166.75 189.394531 166.835938 188.894531 C 166.878906 188.65625 166.917969 188.414062 166.960938 188.167969 C 167.066406 187.523438 167.144531 186.878906 167.195312 186.21875 C 167.253906 185.824219 167.253906 185.824219 167.429688 185.21875 C 167.644531 184.457031 167.78125 183.707031 167.90625 182.933594 C 167.929688 182.785156 167.953125 182.636719 167.980469 182.484375 C 168.03125 182.171875 168.078125 181.863281 168.128906 181.546875 C 168.203125 181.074219 168.28125 180.601562 168.359375 180.128906 C 168.40625 179.828125 168.457031 179.519531 168.503906 179.214844 C 168.527344 179.078125 168.550781 178.9375 168.574219 178.792969 C 168.707031 177.953125 168.8125 177.113281 168.894531 176.261719 C 168.96875 175.683594 169.15625 175.136719 169.316406 174.578125 C 169.460938 173.808594 169.582031 173.035156 169.703125 172.253906 C 169.765625 171.84375 169.832031 171.4375 169.898438 171.03125 C 169.925781 170.851562 169.953125 170.671875 169.984375 170.488281 C 170.066406 170.074219 170.066406 170.074219 170.253906 169.886719 Z M 169.125 175.875 L 169.3125 176.4375 Z M 167.4375 185.8125 L 167.625 186.375 Z M 167.4375 185.8125 "/>
<path style=" stroke:none;fill-rule:nonzero;fill:rgb(98.823529%,99.215686%,98.431373%);fill-opacity:1;" d="M 242.8125 158.0625 C 242.9375 163.820312 243.019531 169.574219 243.011719 175.332031 C 243.011719 175.464844 243.011719 175.59375 243.011719 175.730469 C 243.007812 177.34375 243.003906 178.957031 243 180.566406 C 242.210938 180.914062 241.613281 180.976562 240.75 180.941406 C 240.429688 180.308594 240.515625 179.582031 240.503906 178.878906 C 240.5 178.703125 240.496094 178.523438 240.488281 178.34375 C 240.476562 177.746094 240.464844 177.144531 240.457031 176.546875 C 240.453125 176.34375 240.449219 176.136719 240.445312 175.925781 C 240.375 172.136719 240.347656 168.351562 240.339844 164.582031 C 240.339844 164.15625 240.335938 163.730469 240.335938 163.300781 C 240.332031 162.625 240.332031 161.953125 240.332031 161.277344 C 240.332031 160.90625 240.328125 160.535156 240.328125 160.164062 C 240.328125 159.941406 240.328125 159.71875 240.328125 159.492188 C 240.328125 159.300781 240.328125 159.105469 240.328125 158.90625 C 240.375 158.449219 240.375 158.449219 240.75 158.074219 C 241.449219 157.789062 242.082031 157.960938 242.8125 158.074219 Z M 240.5625 169.6875 L 240.5625 171 L 240.75 171 L 240.75 169.6875 Z M 240.5625 169.6875 "/>
<path style=" stroke:none;fill-rule:nonzero;fill:rgb(98.823529%,99.215686%,98.431373%);fill-opacity:1;" d="M 126.5625 177.75 C 126.710938 177.753906 126.863281 177.761719 127.015625 177.765625 C 127.128906 177.773438 127.242188 177.777344 127.359375 177.785156 C 127.640625 178.34375 127.582031 178.910156 127.585938 179.523438 C 127.589844 179.664062 127.589844 179.804688 127.59375 179.949219 C 127.597656 180.421875 127.601562 180.890625 127.605469 181.363281 C 127.609375 181.695312 127.613281 182.027344 127.617188 182.359375 C 127.628906 183.0625 127.636719 183.765625 127.640625 184.460938 C 127.652344 185.335938 127.660156 186.21875 127.671875 187.105469 C 127.710938 190.460938 127.742188 193.796875 127.75 197.152344 C 127.75 197.453125 127.753906 197.75 127.753906 198.046875 C 127.753906 198.453125 127.757812 198.863281 127.757812 199.269531 C 127.757812 199.5 127.757812 199.730469 127.757812 199.964844 C 127.734375 200.476562 127.734375 200.476562 127.546875 200.664062 C 127.203125 200.683594 126.859375 200.691406 126.515625 200.6875 C 126.328125 200.691406 126.140625 200.691406 125.949219 200.691406 C 125.484375 200.664062 125.484375 200.664062 125.296875 200.480469 C 125.269531 200.03125 125.253906 199.585938 125.242188 199.136719 C 125.242188 198.996094 125.238281 198.855469 125.234375 198.710938 C 125.222656 198.238281 125.210938 197.769531 125.203125 197.300781 C 125.195312 196.96875 125.1875 196.640625 125.179688 196.308594 C 125.160156 195.4375 125.140625 194.5625 125.121094 193.683594 C 125.109375 193.175781 125.097656 192.667969 125.085938 192.160156 C 125.046875 190.371094 125.011719 188.578125 124.984375 186.796875 C 124.96875 185.96875 124.953125 185.144531 124.9375 184.320312 C 124.917969 183.5 124.902344 182.679688 124.890625 181.867188 C 124.886719 181.558594 124.878906 181.25 124.871094 180.941406 C 124.863281 180.515625 124.855469 180.09375 124.851562 179.671875 C 124.847656 179.429688 124.84375 179.191406 124.839844 178.941406 C 124.921875 178.359375 124.921875 178.359375 125.273438 178 C 125.742188 177.761719 126.042969 177.742188 126.5625 177.761719 Z M 125.109375 180.226562 L 125.296875 180.601562 Z M 125.296875 192.601562 L 125.484375 193.164062 Z M 125.296875 192.601562 "/>
<path style=" stroke:none;fill-rule:nonzero;fill:rgb(98.823529%,99.215686%,98.431373%);fill-opacity:1;" d="M 232.875 159.5625 C 233.164062 159.851562 233.09375 160.136719 233.101562 160.542969 C 233.101562 160.710938 233.105469 160.882812 233.109375 161.058594 C 233.113281 161.25 233.117188 161.4375 233.117188 161.628906 C 233.121094 161.828125 233.125 162.027344 233.128906 162.230469 C 233.140625 162.890625 233.152344 163.546875 233.164062 164.199219 C 233.171875 164.65625 233.179688 165.113281 233.1875 165.570312 C 233.210938 166.78125 233.230469 167.992188 233.25 169.191406 C 233.265625 170.171875 233.285156 171.160156 233.300781 172.132812 C 233.320312 173.308594 233.34375 174.476562 233.363281 175.660156 C 233.367188 175.882812 233.371094 176.105469 233.375 176.335938 C 233.386719 176.96875 233.394531 177.605469 233.40625 178.246094 C 233.410156 178.433594 233.414062 178.617188 233.417969 178.808594 C 233.4375 180.015625 233.441406 181.226562 233.4375 182.425781 C 232.324219 182.519531 232.324219 182.519531 231.1875 182.613281 C 230.347656 180.933594 230.773438 177.945312 230.753906 176.070312 C 230.75 175.753906 230.746094 175.4375 230.742188 175.117188 C 230.734375 174.457031 230.726562 173.792969 230.71875 173.128906 C 230.707031 172.128906 230.695312 171.125 230.683594 170.128906 C 230.664062 168.710938 230.652344 167.296875 230.636719 165.875 C 230.628906 164.96875 230.613281 164.0625 230.59375 163.15625 C 230.585938 162.746094 230.578125 162.332031 230.574219 161.921875 C 230.566406 161.742188 230.5625 161.5625 230.554688 161.375 C 230.539062 160.199219 230.539062 160.199219 230.976562 159.714844 C 231.640625 159.429688 232.15625 159.496094 232.871094 159.542969 Z M 232.875 159.5625 "/>
<path style=" stroke:none;fill-rule:nonzero;fill:rgb(98.823529%,99.215686%,98.431373%);fill-opacity:1;" d="M 163.875 171.5625 C 164.0625 174.863281 164.082031 178.164062 164.085938 181.480469 C 164.085938 181.695312 164.085938 181.910156 164.085938 182.132812 C 164.085938 182.757812 164.085938 183.382812 164.085938 184.007812 C 164.085938 184.191406 164.085938 184.378906 164.085938 184.570312 C 164.078125 187.421875 163.789062 190.027344 162.375 192.558594 C 162.125 192.496094 161.878906 192.433594 161.625 192.371094 L 161.625 191.996094 C 161.507812 191.941406 161.390625 191.886719 161.269531 191.832031 C 160.875 191.621094 160.875 191.621094 160.5 191.246094 C 160.550781 190.5625 160.738281 189.964844 160.96875 189.335938 C 161.585938 187.515625 161.457031 185.566406 161.445312 183.671875 C 161.441406 183.191406 161.4375 182.707031 161.4375 182.226562 C 161.433594 180.855469 161.425781 179.488281 161.417969 178.117188 C 161.414062 177.277344 161.410156 176.4375 161.40625 175.585938 C 161.40625 175.265625 161.402344 174.949219 161.402344 174.628906 C 161.398438 174.183594 161.398438 173.738281 161.394531 173.292969 C 161.394531 173.160156 161.390625 173.027344 161.390625 172.890625 C 161.394531 171.980469 161.394531 171.980469 161.8125 171.5625 C 162.554688 171.335938 163.121094 171.421875 163.875 171.5625 Z M 161.625 178.5 L 161.8125 179.25 Z M 161.625 178.5 "/>
<path style=" stroke:none;fill-rule:nonzero;fill:rgb(98.823529%,99.215686%,98.431373%);fill-opacity:1;" d="M 147.1875 174.375 C 147.191406 174.539062 147.195312 174.699219 147.199219 174.867188 C 147.230469 176.414062 147.265625 177.960938 147.304688 179.5 C 147.324219 180.292969 147.34375 181.085938 147.359375 181.878906 C 147.375 182.648438 147.394531 183.417969 147.414062 184.1875 C 147.421875 184.476562 147.429688 184.769531 147.433594 185.058594 C 147.484375 188.808594 147.484375 188.808594 148.859375 192.203125 C 149.117188 192.652344 149.222656 192.976562 149.25 193.496094 C 148.980469 193.957031 148.980469 193.957031 148.605469 194.394531 C 148.480469 194.542969 148.359375 194.691406 148.230469 194.84375 C 148.132812 194.957031 148.039062 195.066406 147.9375 195.179688 C 146.730469 194.628906 146.207031 193.539062 145.722656 192.347656 C 145.484375 191.667969 145.375 191.015625 145.300781 190.304688 L 145.113281 190.304688 C 144.96875 189.128906 144.890625 187.980469 144.867188 186.796875 C 144.863281 186.628906 144.859375 186.457031 144.855469 186.28125 C 144.84375 185.730469 144.832031 185.179688 144.820312 184.628906 C 144.816406 184.441406 144.8125 184.253906 144.808594 184.0625 C 144.785156 182.941406 144.765625 181.8125 144.746094 180.703125 C 144.738281 180.234375 144.730469 179.765625 144.722656 179.296875 C 144.707031 178.558594 144.699219 177.816406 144.691406 177.085938 C 144.6875 176.871094 144.683594 176.660156 144.679688 176.4375 C 144.679688 176.152344 144.679688 176.152344 144.675781 175.859375 C 144.675781 175.695312 144.671875 175.53125 144.671875 175.363281 C 144.753906 174.851562 144.886719 174.691406 145.300781 174.386719 C 146.023438 174.234375 146.46875 174.152344 147.175781 174.386719 Z M 144.9375 177.5625 L 144.9375 180.1875 L 145.125 180.1875 L 145.125 177.5625 Z M 145.125 187.6875 L 145.125 188.625 L 145.3125 188.625 L 145.3125 187.6875 Z M 145.125 187.6875 "/>
<path style=" stroke:none;fill-rule:nonzero;fill:rgb(98.431373%,98.823529%,98.039216%);fill-opacity:1;" d="M 211.6875 166.3125 C 212.296875 166.878906 212.734375 167.484375 213.1875 168.1875 C 213.289062 168.316406 213.386719 168.441406 213.492188 168.574219 C 214.132812 169.476562 214.179688 170.347656 214.183594 171.421875 C 214.1875 171.65625 214.1875 171.65625 214.1875 171.890625 C 214.195312 172.394531 214.199219 172.902344 214.199219 173.40625 C 214.203125 173.761719 214.207031 174.109375 214.210938 174.464844 C 214.222656 175.386719 214.230469 176.3125 214.234375 177.238281 C 214.242188 178.179688 214.253906 179.132812 214.261719 180.070312 C 214.28125 181.921875 214.296875 183.761719 214.3125 185.621094 C 213.777344 185.761719 213.316406 185.828125 212.765625 185.816406 C 212.414062 185.8125 212.414062 185.8125 212.0625 185.804688 C 211.746094 184.84375 211.625 183.960938 211.609375 182.9375 C 211.605469 182.785156 211.601562 182.636719 211.597656 182.480469 C 211.585938 181.980469 211.578125 181.480469 211.570312 180.980469 C 211.5625 180.632812 211.554688 180.277344 211.546875 179.929688 C 211.492188 176.984375 211.480469 174.023438 211.476562 171.058594 C 211.476562 170.84375 211.472656 170.625 211.472656 170.402344 C 211.472656 169.785156 211.472656 169.167969 211.472656 168.550781 C 211.472656 168.367188 211.472656 168.179688 211.472656 167.988281 C 211.472656 167.820312 211.472656 167.652344 211.476562 167.476562 C 211.476562 167.328125 211.476562 167.179688 211.476562 167.027344 C 211.5 166.667969 211.5 166.667969 211.6875 166.292969 Z M 211.6875 170.0625 L 211.6875 176.4375 L 211.875 176.4375 L 211.875 170.0625 Z M 211.875 184.125 L 212.0625 184.5 Z M 211.875 184.125 "/>
<path style=" stroke:none;fill-rule:nonzero;fill:rgb(98.431373%,98.823529%,98.039216%);fill-opacity:1;" d="M 227.8125 160.3125 C 228.195312 160.695312 228.078125 161.460938 228.101562 161.984375 C 228.109375 162.136719 228.117188 162.289062 228.125 162.445312 C 228.195312 163.914062 228.222656 165.371094 228.234375 166.851562 C 228.238281 167.3125 228.246094 167.777344 228.25 168.242188 C 228.261719 169.390625 228.273438 170.546875 228.285156 171.691406 C 228.292969 172.671875 228.304688 173.640625 228.316406 174.636719 C 228.320312 175.089844 228.324219 175.542969 228.328125 175.996094 C 228.34375 177.40625 228.390625 178.789062 228.5625 180.195312 C 227.875 179.535156 227.300781 178.855469 226.734375 178.09375 C 226.273438 177.4375 226.273438 177.4375 225.75 176.828125 C 225.726562 176.515625 225.714844 176.203125 225.710938 175.890625 C 225.707031 175.6875 225.703125 175.488281 225.699219 175.28125 C 225.695312 175.058594 225.691406 174.839844 225.691406 174.609375 C 225.6875 174.382812 225.683594 174.152344 225.679688 173.917969 C 225.667969 173.300781 225.660156 172.6875 225.648438 172.074219 C 225.640625 171.46875 225.628906 170.863281 225.617188 170.257812 C 225.59375 168.824219 225.578125 167.390625 225.5625 165.964844 C 225.558594 165.71875 225.554688 165.472656 225.550781 165.222656 C 225.542969 164.515625 225.539062 163.804688 225.53125 163.105469 C 225.53125 162.890625 225.527344 162.671875 225.523438 162.449219 C 225.523438 162.253906 225.523438 162.054688 225.523438 161.851562 C 225.519531 161.679688 225.519531 161.503906 225.519531 161.324219 C 225.5625 160.910156 225.5625 160.910156 225.9375 160.535156 C 226.554688 160.3125 227.15625 160.316406 227.8125 160.347656 Z M 225.75 165 L 225.75 165.9375 L 225.9375 165.9375 L 225.9375 165 Z M 225.75 165 "/>
<path style=" stroke:none;fill-rule:nonzero;fill:rgb(98.823529%,99.215686%,98.431373%);fill-opacity:1;" d="M 185.625 173.4375 L 186.1875 173.4375 C 186.21875 173.609375 186.21875 173.609375 186.25 173.785156 C 186.34375 174.304688 186.441406 174.828125 186.539062 175.347656 C 186.570312 175.527344 186.605469 175.707031 186.636719 175.894531 C 186.671875 176.066406 186.703125 176.242188 186.738281 176.421875 C 186.765625 176.582031 186.796875 176.742188 186.824219 176.90625 C 186.925781 177.382812 186.925781 177.382812 187.125 177.847656 C 187.3125 178.3125 187.410156 178.730469 187.492188 179.222656 C 187.523438 179.390625 187.554688 179.5625 187.582031 179.738281 C 187.613281 179.917969 187.644531 180.097656 187.675781 180.28125 C 187.914062 181.648438 188.175781 183 188.503906 184.351562 C 188.667969 185.0625 188.789062 185.773438 188.910156 186.488281 C 189 186.984375 189 186.984375 189.199219 187.625 C 189.414062 188.394531 189.492188 189.148438 189.5625 189.949219 C 189.011719 190.132812 188.625 190.167969 188.050781 190.171875 C 187.886719 190.175781 187.722656 190.175781 187.550781 190.179688 C 187.125 190.136719 187.125 190.136719 186.75 189.761719 C 186.644531 189.378906 186.644531 189.378906 186.5625 188.910156 C 186.53125 188.738281 186.5 188.570312 186.46875 188.394531 C 186.4375 188.214844 186.40625 188.035156 186.375 187.851562 C 186.175781 186.71875 185.945312 185.621094 185.625 184.515625 C 185.511719 183.988281 185.414062 183.460938 185.320312 182.929688 C 185.28125 182.726562 185.28125 182.726562 185.246094 182.515625 C 185.183594 182.179688 185.125 181.847656 185.0625 181.511719 L 184.875 181.511719 C 184.742188 180.847656 184.613281 180.183594 184.488281 179.523438 C 184.453125 179.335938 184.414062 179.148438 184.375 178.957031 C 184.078125 177.378906 184.21875 176.367188 184.875 174.886719 C 184.929688 174.769531 184.980469 174.652344 185.03125 174.527344 C 185.410156 173.660156 185.410156 173.660156 185.625 173.445312 Z M 185.625 173.4375 "/>
<path style=" stroke:none;fill-rule:nonzero;fill:rgb(0%,0%,0%);fill-opacity:1;" d="M 108.5625 124.5 C 109.101562 125.039062 109.019531 125.597656 109.050781 126.320312 C 109.058594 126.464844 109.066406 126.609375 109.074219 126.753906 C 109.09375 127.214844 109.117188 127.675781 109.136719 128.132812 C 109.160156 128.589844 109.179688 129.046875 109.203125 129.507812 C 109.21875 129.792969 109.230469 130.078125 109.246094 130.363281 C 109.273438 130.996094 109.335938 131.578125 109.5 132.1875 C 109.5625 132.96875 109.582031 133.75 109.605469 134.53125 C 109.613281 134.773438 109.621094 135.011719 109.628906 135.261719 C 109.722656 138.296875 109.71875 141.335938 109.6875 144.375 C 109.6875 144.539062 109.683594 144.707031 109.683594 144.882812 C 109.671875 145.9375 109.660156 147 109.640625 148.050781 C 109.632812 148.390625 109.628906 148.734375 109.625 149.074219 C 109.617188 149.550781 109.609375 150.027344 109.597656 150.503906 C 109.597656 150.644531 109.59375 150.785156 109.59375 150.933594 C 109.570312 151.816406 109.398438 152.429688 108.9375 153.183594 C 108.023438 154.027344 106.632812 154.359375 105.46875 154.738281 C 105.320312 154.789062 105.171875 154.839844 105.019531 154.890625 C 104.027344 155.199219 103.050781 155.410156 102 155.246094 C 101.265625 154.507812 101.429688 153.21875 101.425781 152.226562 C 101.429688 151.980469 101.433594 151.738281 101.4375 151.488281 L 101.625 151.488281 C 101.75 152.230469 101.871094 152.972656 102 153.738281 L 102.375 153.738281 L 102.375 154.300781 C 102.472656 154.265625 102.574219 154.234375 102.675781 154.203125 C 103.132812 154.054688 103.59375 153.90625 104.050781 153.757812 C 104.207031 153.707031 104.363281 153.660156 104.523438 153.605469 C 105.425781 153.320312 106.324219 153.070312 107.242188 152.878906 C 107.621094 152.796875 107.996094 152.707031 108.371094 152.609375 C 108.496094 148.878906 108.578125 145.167969 108.578125 141.4375 C 108.578125 141.269531 108.582031 141.105469 108.582031 140.933594 C 108.585938 139.179688 108.5625 137.429688 108.472656 135.683594 C 108.464844 135.539062 108.457031 135.394531 108.449219 135.25 C 108.414062 134.628906 108.363281 134.023438 108.273438 133.410156 C 108.164062 132.628906 108.117188 131.851562 108.082031 131.066406 C 108.074219 130.910156 108.066406 130.753906 108.058594 130.589844 C 108.03125 130.097656 108.007812 129.601562 107.984375 129.105469 C 107.964844 128.769531 107.949219 128.429688 107.929688 128.09375 C 107.890625 127.269531 107.847656 126.445312 107.808594 125.617188 C 107.453125 125.492188 107.453125 125.492188 107.058594 125.429688 C 106.933594 125.554688 106.808594 125.679688 106.683594 125.804688 C 105.496094 126.242188 104.375 126.441406 103.121094 126.367188 L 103.121094 126.742188 L 101.996094 126.742188 C 101.933594 126.621094 101.871094 126.496094 101.808594 126.367188 C 102.933594 125.882812 104.074219 125.480469 105.238281 125.113281 C 105.367188 125.074219 105.492188 125.035156 105.625 124.992188 C 106.59375 124.691406 107.535156 124.410156 108.550781 124.492188 Z M 108.5625 124.5 "/>
<path style=" stroke:none;fill-rule:nonzero;fill:rgb(98.823529%,99.215686%,98.431373%);fill-opacity:1;" d="M 207 178.3125 C 207.164062 178.570312 207.324219 178.832031 207.480469 179.097656 C 207.570312 179.242188 207.660156 179.390625 207.75 179.539062 C 207.972656 180.09375 207.914062 180.375 207.75 180.9375 C 207.394531 180.992188 207.394531 180.992188 207.027344 181.050781 C 206.710938 181.097656 206.390625 181.148438 206.074219 181.195312 C 205.839844 181.234375 205.839844 181.234375 205.601562 181.269531 C 204.84375 181.386719 204.09375 181.515625 203.351562 181.691406 C 202.246094 181.945312 201.136719 182.078125 200.011719 182.226562 C 199.265625 182.328125 198.539062 182.433594 197.800781 182.628906 C 196.941406 182.859375 196.074219 182.949219 195.195312 183.039062 C 195.03125 183.054688 194.871094 183.074219 194.703125 183.089844 C 194.300781 183.132812 193.898438 183.160156 193.496094 183.1875 C 193.433594 183.128906 193.371094 183.066406 193.308594 183 C 193.363281 181.910156 193.457031 181.195312 194.246094 180.375 C 195.058594 180.132812 195.875 180.046875 196.71875 179.953125 C 197.167969 179.898438 197.617188 179.84375 198.066406 179.789062 C 198.386719 179.75 198.386719 179.75 198.71875 179.707031 C 199.351562 179.621094 199.964844 179.492188 200.589844 179.339844 C 201.554688 179.132812 202.539062 179.03125 203.511719 178.90625 C 204.6875 178.746094 205.820312 178.246094 207 178.316406 Z M 207 178.3125 "/>
<path style=" stroke:none;fill-rule:nonzero;fill:rgb(98.823529%,99.215686%,98.431373%);fill-opacity:1;" d="M 184.5 167.625 L 185.0625 167.625 C 185.125 168 185.1875 168.375 185.25 168.75 C 185.285156 168.957031 185.320312 169.167969 185.355469 169.382812 C 185.570312 171.160156 185.269531 172.140625 184.488281 173.734375 C 184.394531 173.933594 184.300781 174.132812 184.203125 174.339844 C 183.613281 175.585938 182.996094 176.8125 182.367188 178.050781 C 181.933594 178.949219 181.5625 179.867188 181.199219 180.789062 C 180.914062 181.507812 180.601562 182.152344 180.1875 182.8125 C 180.058594 183.0625 179.933594 183.3125 179.8125 183.5625 C 179.632812 183.359375 179.449219 183.148438 179.269531 182.945312 C 179.121094 182.769531 179.121094 182.769531 178.96875 182.59375 C 178.683594 182.253906 178.683594 182.253906 178.308594 181.691406 C 178.382812 180.976562 178.636719 180.359375 178.917969 179.703125 C 179.003906 179.507812 179.085938 179.308594 179.171875 179.105469 C 179.488281 178.386719 179.8125 177.675781 180.140625 176.964844 C 180.378906 176.433594 180.597656 175.898438 180.816406 175.359375 C 181.164062 174.515625 181.550781 173.707031 181.964844 172.902344 C 182.503906 171.847656 182.945312 170.78125 183.34375 169.675781 C 183.644531 168.933594 184.054688 168.308594 184.496094 167.652344 Z M 184.5 167.625 "/>
<path style=" stroke:none;fill-rule:nonzero;fill:rgb(98.823529%,99.215686%,98.431373%);fill-opacity:1;" d="M 200.0625 164.625 C 200.410156 164.65625 200.410156 164.65625 200.8125 164.8125 C 201.058594 165.257812 201.058594 165.257812 201.269531 165.832031 C 201.683594 166.90625 202.164062 167.914062 202.6875 168.945312 C 203.351562 170.246094 203.980469 171.570312 204.601562 172.882812 C 204.835938 173.390625 205.078125 173.894531 205.320312 174.398438 C 205.382812 174.523438 205.441406 174.652344 205.503906 174.78125 C 205.621094 175.019531 205.738281 175.261719 205.859375 175.5 C 206.171875 176.15625 206.324219 176.652344 206.257812 177.375 C 206.019531 177.46875 205.78125 177.5625 205.542969 177.65625 C 205.410156 177.707031 205.277344 177.761719 205.140625 177.816406 C 204.757812 177.9375 204.757812 177.9375 204.195312 177.9375 L 204.195312 177.5625 C 203.917969 177.46875 203.917969 177.46875 203.632812 177.375 C 203.378906 176.90625 203.15625 176.453125 202.941406 175.96875 C 202.808594 175.679688 202.675781 175.386719 202.546875 175.09375 C 202.476562 174.945312 202.410156 174.796875 202.339844 174.640625 C 202.019531 173.925781 201.683594 173.21875 201.351562 172.5 C 201.289062 172.367188 201.226562 172.234375 201.160156 172.097656 C 200.820312 171.375 200.472656 170.652344 200.109375 169.941406 C 200.039062 169.800781 199.96875 169.65625 199.894531 169.507812 C 199.769531 169.265625 199.640625 169.023438 199.503906 168.785156 C 198.976562 167.785156 199.195312 166.960938 199.511719 165.933594 C 199.679688 165.480469 199.867188 165.058594 200.074219 164.621094 Z M 200.0625 164.625 "/>
<path style=" stroke:none;fill-rule:nonzero;fill:rgb(98.823529%,99.215686%,98.431373%);fill-opacity:1;" d="M 140.8125 184.875 C 140.828125 185.242188 140.839844 185.609375 140.847656 185.976562 C 140.859375 186.285156 140.859375 186.285156 140.867188 186.597656 C 140.847656 186.769531 140.832031 186.945312 140.8125 187.125 C 140.203125 187.53125 139.871094 187.589844 139.152344 187.6875 C 138.9375 187.71875 138.714844 187.75 138.492188 187.78125 C 138.261719 187.8125 138.035156 187.84375 137.800781 187.875 C 136.292969 188.082031 134.800781 188.3125 133.316406 188.625 C 132.78125 188.730469 132.238281 188.832031 131.703125 188.929688 C 131.570312 188.953125 131.4375 188.980469 131.304688 189.003906 C 130.402344 189.167969 129.550781 189.210938 128.625 189.1875 C 128.40625 188.753906 128.386719 188.460938 128.363281 187.980469 C 128.351562 187.757812 128.351562 187.757812 128.335938 187.535156 C 128.433594 187.125 128.433594 187.125 128.847656 186.828125 C 129.371094 186.5625 129.78125 186.441406 130.355469 186.34375 C 130.644531 186.292969 130.644531 186.292969 130.933594 186.242188 C 131.140625 186.210938 131.347656 186.175781 131.554688 186.140625 C 131.769531 186.105469 131.980469 186.070312 132.199219 186.03125 C 132.878906 185.917969 133.554688 185.804688 134.242188 185.691406 C 134.699219 185.617188 135.152344 185.539062 135.609375 185.460938 C 136.625 185.289062 137.632812 185.121094 138.664062 184.953125 C 139.042969 184.890625 139.421875 184.816406 139.800781 184.746094 C 140.261719 184.683594 140.261719 184.683594 140.824219 184.871094 Z M 140.8125 184.875 "/>
<path style=" stroke:none;fill-rule:nonzero;fill:rgb(98.823529%,99.215686%,98.431373%);fill-opacity:1;" d="M 266.25 153.9375 C 266.195312 154.050781 266.140625 154.167969 266.085938 154.28125 C 265.523438 155.484375 265.035156 156.703125 264.589844 157.957031 C 264.332031 158.671875 264.027344 159.296875 263.625 159.945312 C 263.492188 160.300781 263.355469 160.65625 263.230469 161.015625 C 263.042969 161.503906 262.828125 161.976562 262.605469 162.453125 C 262.230469 163.265625 261.886719 164.089844 261.558594 164.925781 C 261.269531 165.652344 260.949219 166.359375 260.625 167.0625 C 260.097656 166.945312 259.773438 166.808594 259.453125 166.363281 C 259.023438 165.566406 258.859375 165.140625 259.125 164.246094 C 259.34375 163.671875 259.585938 163.109375 259.828125 162.546875 C 259.964844 162.226562 260.101562 161.90625 260.238281 161.582031 C 260.304688 161.429688 260.371094 161.273438 260.441406 161.113281 C 260.671875 160.570312 260.902344 160.023438 261.128906 159.476562 C 261.515625 158.546875 261.902344 157.617188 262.292969 156.683594 C 262.570312 156.007812 262.84375 155.339844 263.0625 154.640625 C 263.566406 153.929688 264 153.902344 264.828125 153.761719 C 265.339844 153.734375 265.757812 153.804688 266.25 153.925781 Z M 266.25 153.9375 "/>
<path style=" stroke:none;fill-rule:nonzero;fill:rgb(98.823529%,99.215686%,98.431373%);fill-opacity:1;" d="M 252.9375 156.1875 C 253.050781 156.421875 253.050781 156.421875 253.167969 156.664062 C 253.28125 156.898438 253.398438 157.136719 253.511719 157.371094 C 253.574219 157.5 253.636719 157.628906 253.703125 157.761719 C 254.15625 158.675781 254.648438 159.5625 255.164062 160.445312 C 255.292969 160.667969 255.421875 160.890625 255.550781 161.113281 C 255.742188 161.445312 255.9375 161.78125 256.132812 162.109375 C 257.09375 163.707031 257.535156 164.828125 257.128906 166.667969 C 257.074219 166.800781 257.023438 166.9375 256.96875 167.074219 C 256.917969 167.214844 256.867188 167.355469 256.8125 167.5 C 256.769531 167.597656 256.730469 167.699219 256.6875 167.804688 C 256.234375 167.734375 256.003906 167.695312 255.707031 167.332031 C 255.644531 167.210938 255.582031 167.089844 255.515625 166.964844 C 255.40625 166.761719 255.40625 166.761719 255.292969 166.550781 C 255.214844 166.40625 255.136719 166.257812 255.058594 166.105469 C 254.894531 165.796875 254.726562 165.484375 254.558594 165.175781 C 254.476562 165.019531 254.394531 164.859375 254.308594 164.699219 C 254.011719 164.148438 253.707031 163.605469 253.394531 163.0625 C 251.070312 158.976562 251.070312 158.976562 251.070312 158.058594 L 250.695312 158.058594 C 250.347656 157.46875 250.285156 157.050781 250.320312 156.371094 C 251.195312 156.140625 252.046875 156.164062 252.945312 156.183594 Z M 252.9375 156.1875 "/>
<path style=" stroke:none;fill-rule:nonzero;fill:rgb(98.823529%,99.215686%,98.431373%);fill-opacity:1;" d="M 159.5625 192.1875 C 160.203125 192.5 160.761719 192.921875 161.144531 193.535156 C 161.128906 193.914062 161.128906 193.914062 160.957031 194.285156 C 158.632812 196.40625 155.425781 196.609375 152.445312 196.59375 C 152.097656 196.597656 152.097656 196.597656 151.746094 196.601562 C 151.410156 196.601562 151.410156 196.601562 151.070312 196.601562 C 150.867188 196.601562 150.667969 196.601562 150.464844 196.601562 C 149.800781 196.523438 149.34375 196.296875 148.765625 195.972656 C 148.855469 195.691406 148.855469 195.691406 148.953125 195.410156 L 149.328125 195.410156 C 149.378906 195.269531 149.425781 195.128906 149.480469 194.988281 C 149.703125 194.46875 149.871094 194.125 150.265625 193.722656 C 150.773438 193.644531 150.773438 193.644531 151.390625 193.667969 C 151.726562 193.675781 151.726562 193.675781 152.070312 193.683594 C 152.304688 193.691406 152.539062 193.699219 152.785156 193.710938 C 155.804688 193.839844 155.804688 193.839844 158.503906 192.644531 C 159.078125 192.222656 159.078125 192.222656 159.558594 192.183594 Z M 152.511719 194.101562 L 152.511719 194.289062 L 154.011719 194.289062 L 154.011719 194.101562 Z M 152.511719 194.101562 "/>
<path style=" stroke:none;fill-rule:nonzero;fill:rgb(98.039216%,98.431373%,97.647059%);fill-opacity:1;" d="M 173.25 174.75 C 173.734375 175.234375 173.976562 175.792969 174.269531 176.402344 C 174.652344 177.183594 175.042969 177.945312 175.5 178.6875 C 176.183594 179.851562 176.867188 181.015625 177.507812 182.195312 C 177.683594 182.511719 177.867188 182.824219 178.058594 183.132812 C 178.964844 184.648438 178.964844 184.648438 178.90625 185.476562 C 178.640625 186.324219 178.261719 186.976562 177.746094 187.6875 C 177.175781 187.011719 176.726562 186.324219 176.296875 185.550781 C 176.164062 185.316406 176.035156 185.082031 175.902344 184.851562 C 175.835938 184.730469 175.765625 184.613281 175.695312 184.488281 C 175.433594 184.027344 175.164062 183.574219 174.890625 183.117188 C 174.621094 182.671875 174.359375 182.226562 174.097656 181.78125 C 173.964844 181.554688 173.828125 181.328125 173.691406 181.105469 C 172.890625 179.785156 172.296875 178.78125 172.492188 177.1875 C 172.5 177.019531 172.507812 176.851562 172.515625 176.679688 C 172.589844 175.886719 172.652344 175.339844 173.242188 174.75 Z M 172.875 175.5 L 173.0625 176.0625 Z M 172.875 175.5 "/>
<path style=" stroke:none;fill-rule:nonzero;fill:rgb(0%,0%,0%);fill-opacity:1;" d="M 94.875 127.125 C 95.21875 127.128906 95.21875 127.128906 95.566406 127.136719 C 96.050781 128.382812 96.253906 129.554688 96.351562 130.886719 C 96.367188 131.074219 96.382812 131.261719 96.398438 131.453125 C 96.519531 133.078125 96.542969 134.695312 96.503906 136.328125 L 96.128906 136.328125 L 96.128906 139.890625 L 95.941406 139.890625 L 95.941406 137.640625 L 95.566406 137.640625 C 95.3125 135.484375 95.109375 133.347656 94.949219 131.191406 C 94.875 130.207031 94.785156 129.242188 94.628906 128.265625 C 93.425781 128.457031 92.230469 128.703125 91.046875 129.003906 C 90.8125 129.0625 90.574219 129.125 90.328125 129.183594 C 89.699219 129.34375 89.699219 129.34375 89.371094 129.953125 C 89.320312 130.5 89.320312 130.5 89.335938 131.117188 C 89.335938 131.34375 89.339844 131.570312 89.339844 131.800781 C 89.34375 132.039062 89.347656 132.277344 89.347656 132.519531 C 89.351562 132.757812 89.351562 133 89.355469 133.246094 C 89.359375 133.835938 89.363281 134.425781 89.371094 135.015625 L 88.996094 135.015625 C 89.027344 135.21875 89.058594 135.417969 89.089844 135.625 C 89.226562 136.671875 89.199219 137.707031 89.183594 138.777344 L 88.808594 138.777344 C 88.835938 139.273438 88.863281 139.769531 88.890625 140.265625 C 88.898438 140.40625 88.90625 140.546875 88.914062 140.695312 C 88.894531 141.386719 88.894531 141.386719 89.183594 141.964844 C 89.167969 142.472656 89.140625 142.972656 89.101562 143.476562 C 89.09375 143.617188 89.082031 143.761719 89.074219 143.90625 C 89.046875 144.261719 89.023438 144.613281 88.996094 144.964844 L 88.621094 144.964844 L 88.621094 148.339844 L 88.433594 148.339844 C 87.921875 144.816406 88.078125 141.328125 88.226562 137.785156 C 88.246094 137.269531 88.269531 136.757812 88.289062 136.246094 C 88.324219 135.378906 88.359375 134.515625 88.398438 133.65625 C 88.414062 133.324219 88.429688 132.992188 88.445312 132.664062 C 88.464844 132.199219 88.488281 131.738281 88.511719 131.277344 C 88.515625 131.140625 88.519531 131.003906 88.527344 130.863281 C 88.566406 130.125 88.648438 129.511719 88.996094 128.855469 C 89.8125 128.339844 90.71875 128.078125 91.640625 127.800781 C 91.773438 127.761719 91.902344 127.71875 92.035156 127.679688 C 92.988281 127.382812 93.871094 127.140625 94.867188 127.15625 Z M 94.875 127.125 "/>
<path style=" stroke:none;fill-rule:nonzero;fill:rgb(98.823529%,99.215686%,98.431373%);fill-opacity:1;" d="M 140.625 188.4375 C 141.132812 188.945312 141.011719 190.164062 141.019531 190.835938 C 141.019531 191.179688 141.019531 191.523438 141.019531 191.863281 C 141.015625 192.042969 141.015625 192.226562 141.015625 192.414062 C 141.015625 192.988281 141.011719 193.5625 141.011719 194.136719 C 141.011719 194.53125 141.007812 194.921875 141.007812 195.3125 C 141.007812 196.265625 141.003906 197.222656 141 198.179688 C 140.734375 198.242188 140.46875 198.304688 140.203125 198.367188 C 140.054688 198.402344 139.90625 198.4375 139.753906 198.472656 C 139.3125 198.554688 139.3125 198.554688 138.5625 198.554688 C 138.335938 198.097656 138.351562 197.808594 138.347656 197.300781 C 138.34375 197.117188 138.34375 196.933594 138.34375 196.746094 C 138.34375 196.546875 138.34375 196.351562 138.34375 196.148438 C 138.339844 195.945312 138.339844 195.742188 138.339844 195.535156 C 138.339844 195.105469 138.339844 194.675781 138.339844 194.25 C 138.339844 193.589844 138.335938 192.933594 138.332031 192.28125 C 138.332031 191.863281 138.332031 191.449219 138.332031 191.03125 C 138.328125 190.832031 138.328125 190.636719 138.324219 190.433594 C 138.328125 190.25 138.328125 190.066406 138.328125 189.878906 C 138.328125 189.71875 138.328125 189.558594 138.328125 189.390625 C 138.375 189 138.375 189 138.75 188.625 C 139.371094 188.402344 139.96875 188.40625 140.625 188.4375 Z M 140.625 188.4375 "/>
<path style=" stroke:none;fill-rule:nonzero;fill:rgb(98.823529%,99.215686%,98.431373%);fill-opacity:1;" d="M 258 166.875 C 258.714844 167.183594 259.019531 167.53125 259.351562 168.25 C 259.679688 169.347656 259.628906 170.5 259.640625 171.644531 C 259.644531 171.914062 259.652344 172.183594 259.65625 172.453125 C 259.671875 173.214844 259.679688 173.984375 259.6875 174.738281 C 259.6875 174.933594 259.691406 175.128906 259.691406 175.328125 C 259.699219 176.195312 259.695312 177.058594 259.6875 177.9375 C 258.480469 178.027344 258.480469 178.027344 257.25 178.125 C 257.035156 177.695312 257.035156 177.445312 257.027344 176.96875 C 257.023438 176.808594 257.019531 176.648438 257.019531 176.484375 C 257.007812 175.738281 257 174.992188 256.996094 174.25 C 256.996094 173.859375 256.988281 173.472656 256.980469 173.082031 C 256.941406 170.832031 256.917969 168.917969 258 166.875 Z M 257.4375 168.5625 L 257.625 168.9375 Z M 257.4375 168.5625 "/>
<path style=" stroke:none;fill-rule:nonzero;fill:rgb(98.039216%,98.431373%,97.647059%);fill-opacity:1;" d="M 198.5625 169.3125 C 199.222656 170.066406 199.675781 170.964844 199.695312 171.976562 C 199.578125 173.246094 199.230469 174.335938 198.773438 175.539062 C 198.707031 175.714844 198.640625 175.890625 198.574219 176.074219 C 198.386719 176.574219 198.195312 177.070312 198 177.566406 C 197.949219 177.703125 197.894531 177.835938 197.839844 177.976562 C 197.488281 178.84375 197.488281 178.84375 197.027344 179.148438 C 196.335938 179.289062 195.703125 179.277344 195 179.253906 C 194.714844 178.59375 194.90625 178.132812 195.160156 177.484375 C 195.210938 177.359375 195.265625 177.230469 195.320312 177.097656 C 195.425781 176.828125 195.53125 176.558594 195.636719 176.292969 C 195.714844 176.09375 195.714844 176.09375 195.792969 175.886719 C 195.996094 175.351562 196.175781 174.808594 196.351562 174.261719 C 196.597656 173.511719 196.886719 172.832031 197.253906 172.125 C 197.378906 171.808594 197.503906 171.492188 197.628906 171.175781 C 197.886719 170.511719 198.167969 169.910156 198.566406 169.3125 Z M 198.5625 169.3125 "/>
<path style=" stroke:none;fill-rule:nonzero;fill:rgb(98.823529%,99.215686%,98.431373%);fill-opacity:1;" d="M 140.625 175.5 C 140.84375 178.257812 140.832031 180.992188 140.8125 183.75 C 139.605469 183.84375 139.605469 183.84375 138.375 183.9375 C 138.054688 183.296875 138.15625 182.5625 138.15625 181.855469 C 138.15625 181.6875 138.15625 181.519531 138.152344 181.34375 C 138.152344 180.984375 138.152344 180.628906 138.152344 180.269531 C 138.152344 179.71875 138.148438 179.171875 138.144531 178.621094 C 138.144531 178.273438 138.144531 177.925781 138.144531 177.578125 C 138.140625 177.414062 138.140625 177.25 138.140625 177.078125 C 138.144531 175.917969 138.144531 175.917969 138.5625 175.5 C 139.324219 175.3125 139.867188 175.328125 140.625 175.5 Z M 140.625 175.5 "/>
<path style=" stroke:none;fill-rule:nonzero;fill:rgb(98.823529%,99.215686%,98.431373%);fill-opacity:1;" d="M 195.1875 184.125 C 195.09375 185.1875 194.890625 185.960938 194.4375 186.9375 C 194.304688 187.269531 194.167969 187.601562 194.039062 187.933594 C 193.871094 188.359375 193.707031 188.777344 193.5 189.1875 C 193.050781 189.304688 193.050781 189.304688 192.492188 189.398438 C 192.308594 189.429688 192.125 189.460938 191.9375 189.492188 C 191.4375 189.5625 191.4375 189.5625 190.875 189.5625 C 190.964844 188.699219 191.136719 187.960938 191.460938 187.160156 C 191.578125 186.867188 191.691406 186.566406 191.796875 186.265625 C 192.476562 184.390625 193.21875 184 195.1875 184.128906 Z M 195.1875 184.125 "/>
<path style=" stroke:none;fill-rule:nonzero;fill:rgb(98.823529%,99.215686%,98.431373%);fill-opacity:1;" d="M 208.875 182.0625 C 209.15625 182.558594 209.390625 183.042969 209.625 183.5625 C 209.738281 183.804688 209.851562 184.046875 209.964844 184.285156 C 210.289062 184.980469 210.613281 185.675781 210.9375 186.367188 C 210.007812 186.429688 209.082031 186.492188 208.125 186.554688 L 208.125 186.179688 L 207.75 186.179688 C 207.671875 186.011719 207.597656 185.847656 207.515625 185.671875 C 207.417969 185.453125 207.316406 185.234375 207.210938 185.007812 C 207.0625 184.683594 207.0625 184.683594 206.90625 184.347656 C 206.746094 184 206.578125 183.65625 206.394531 183.320312 C 206.1875 182.855469 206.304688 182.53125 206.4375 182.054688 C 206.703125 181.980469 206.96875 181.910156 207.234375 181.84375 C 207.382812 181.804688 207.53125 181.765625 207.683594 181.726562 C 208.214844 181.671875 208.4375 181.753906 208.875 182.054688 Z M 208.875 182.0625 "/>
<path style=" stroke:none;fill-rule:nonzero;fill:rgb(98.823529%,99.215686%,98.431373%);fill-opacity:1;" d="M 239.4375 158.625 L 239.4375 160.875 C 238.21875 161.300781 236.980469 161.414062 235.6875 161.4375 C 235.359375 161.109375 235.46875 160.671875 235.464844 160.230469 C 235.460938 160.042969 235.460938 159.859375 235.457031 159.667969 C 235.5 159.1875 235.5 159.1875 235.875 158.8125 C 237.078125 158.496094 238.21875 158.34375 239.4375 158.625 Z M 239.4375 158.625 "/>
<path style=" stroke:none;fill-rule:nonzero;fill:rgb(98.823529%,99.215686%,98.431373%);fill-opacity:1;" d="M 247.3125 157.125 C 247.652344 157.464844 247.570312 157.988281 247.605469 158.449219 C 247.628906 158.761719 247.628906 158.761719 247.652344 159.078125 C 247.664062 159.238281 247.675781 159.398438 247.6875 159.5625 C 245.023438 160.011719 245.023438 160.011719 243.9375 159.9375 C 243.625 159.625 243.695312 159.261719 243.679688 158.835938 C 243.691406 157.933594 243.691406 157.933594 244.125 157.488281 C 245.167969 157.160156 246.226562 157.070312 247.3125 157.125 Z M 247.3125 157.125 "/>
<path style=" stroke:none;fill-rule:nonzero;fill:rgb(0%,0%,0%);fill-opacity:1;" d="M 101.0625 135 L 101.25 135 C 101.425781 136.054688 101.472656 137.082031 101.488281 138.148438 C 101.496094 138.503906 101.503906 138.855469 101.511719 139.210938 C 101.519531 139.765625 101.53125 140.320312 101.539062 140.875 C 101.550781 141.414062 101.5625 141.949219 101.570312 142.488281 C 101.574219 142.652344 101.578125 142.820312 101.578125 142.992188 C 101.519531 143.742188 101.519531 143.742188 101.8125 144.371094 C 101.820312 144.804688 101.820312 145.246094 101.8125 145.683594 L 101.4375 145.683594 L 101.4375 151.121094 L 101.25 151.121094 L 101.25 149.246094 L 100.875 149.246094 C 100.871094 147.609375 100.867188 145.964844 100.863281 144.332031 C 100.863281 143.574219 100.863281 142.8125 100.859375 142.042969 C 100.859375 141.308594 100.859375 140.578125 100.855469 139.851562 C 100.855469 139.570312 100.855469 139.292969 100.855469 139.011719 C 100.84375 136.3125 100.84375 136.3125 101.0625 135 Z M 101.0625 135 "/>
<path style=" stroke:none;fill-rule:nonzero;fill:rgb(1.568627%,1.176471%,0.392157%);fill-opacity:1;" d="M 95.625 154.5 C 95.8125 154.5625 95.996094 154.625 96.1875 154.6875 C 96.125 154.875 96.0625 155.058594 96 155.25 L 96.375 155.25 C 96.25 155.695312 96.09375 155.945312 95.695312 156.183594 C 95.292969 156.367188 94.886719 156.53125 94.476562 156.691406 C 94.335938 156.75 94.199219 156.808594 94.058594 156.867188 C 93.136719 157.234375 92.300781 157.433594 91.320312 157.5 C 91.257812 157.4375 91.195312 157.375 91.132812 157.3125 C 90.53125 157.28125 90.019531 157.328125 89.445312 157.5 C 89.382812 157.191406 89.320312 156.882812 89.257812 156.5625 C 89.414062 156.554688 89.570312 156.550781 89.730469 156.542969 C 91.046875 156.464844 92.152344 156.289062 93.386719 155.8125 C 93.691406 155.703125 93.996094 155.597656 94.304688 155.496094 C 94.4375 155.449219 94.574219 155.402344 94.710938 155.351562 C 95.078125 155.25 95.078125 155.25 95.640625 155.25 L 95.640625 154.5 Z M 95.625 154.5 "/>
<path style=" stroke:none;fill-rule:nonzero;fill:rgb(98.823529%,99.215686%,98.431373%);fill-opacity:1;" d="M 230.4375 160.3125 L 230.625 160.3125 L 230.625 164.625 L 230.4375 164.625 Z M 230.4375 160.3125 "/>
<path style=" stroke:none;fill-rule:nonzero;fill:rgb(0%,0%,0%);fill-opacity:1;" d="M 233.25 164.8125 L 233.4375 164.8125 L 233.4375 168.5625 L 233.25 168.5625 Z M 233.25 164.8125 "/>
<path style=" stroke:none;fill-rule:nonzero;fill:rgb(0%,0%,0%);fill-opacity:1;" d="M 117.75 183 L 117.9375 183 L 117.9375 185.4375 L 117.75 185.4375 Z M 117.75 183 "/>
<path style=" stroke:none;fill-rule:nonzero;fill:rgb(98.823529%,99.215686%,98.431373%);fill-opacity:1;" d="M 164.8125 101.625 L 165 101.625 L 165 103.875 L 164.8125 103.875 Z M 164.8125 101.625 "/>
<path style=" stroke:none;fill-rule:nonzero;fill:rgb(0%,0%,0%);fill-opacity:1;" d="M 151.3125 196.6875 L 153.1875 196.6875 L 153.1875 196.875 L 151.3125 196.875 Z M 151.3125 196.6875 "/>
<path style=" stroke:none;fill-rule:nonzero;fill:rgb(0%,0%,0%);fill-opacity:1;" d="M 141 143.4375 L 141.1875 143.4375 L 141.1875 145.3125 L 141 145.3125 Z M 141 143.4375 "/>
<path style=" stroke:none;fill-rule:nonzero;fill:rgb(0%,0%,0%);fill-opacity:1;" d="M 140.8125 150 L 141 150 L 141 151.6875 L 140.8125 151.6875 Z M 140.8125 150 "/>
<path style=" stroke:none;fill-rule:nonzero;fill:rgb(0%,0%,0%);fill-opacity:1;" d="M 233.4375 178.875 L 233.625 178.875 L 233.625 180.375 L 233.4375 180.375 Z M 233.4375 178.875 "/>
<path style=" stroke:none;fill-rule:nonzero;fill:rgb(0%,0%,0%);fill-opacity:1;" d="M 185.25 131.25 L 185.4375 131.25 L 185.4375 132.75 L 185.25 132.75 Z M 185.25 131.25 "/>
<path style=" stroke:none;fill-rule:nonzero;fill:rgb(0%,0%,0%);fill-opacity:1;" d="M 117.5625 161.625 L 117.75 161.625 L 117.75 162.9375 L 117.5625 162.9375 Z M 117.5625 161.625 "/>
<path style=" stroke:none;fill-rule:nonzero;fill:rgb(0%,0%,0%);fill-opacity:1;" d="M 185.4375 123 L 185.625 123 L 185.625 124.3125 L 185.4375 124.3125 Z M 185.4375 123 "/>
<path style=" stroke:none;fill-rule:nonzero;fill:rgb(0%,0%,0%);fill-opacity:1;" d="M 245.8125 99.9375 L 246 99.9375 L 246 101.0625 L 245.8125 101.0625 Z M 245.8125 99.9375 "/>
<path style=" stroke:none;fill-rule:nonzero;fill:rgb(0%,0%,0%);fill-opacity:1;" d="M 116.8125 147.375 L 117 147.375 L 117 148.3125 L 116.8125 148.3125 Z M 116.8125 147.375 "/>
<path style=" stroke:none;fill-rule:nonzero;fill:rgb(0%,0%,0%);fill-opacity:1;" d="M 185.625 114.75 L 185.8125 114.75 L 185.8125 115.6875 L 185.625 115.6875 Z M 185.625 114.75 "/>
<path style=" stroke:none;fill-rule:nonzero;fill:rgb(0%,0%,0%);fill-opacity:1;" d="M 33.5625 196.3125 C 33.84375 196.5 33.84375 196.5 34.125 196.6875 L 33.5625 196.6875 Z M 33.5625 196.3125 "/>
<path style=" stroke:none;fill-rule:nonzero;fill:rgb(0%,0%,0%);fill-opacity:1;" d="M 100.3125 168.75 L 101.0625 168.9375 Z M 100.3125 168.75 "/>
<path style=" stroke:none;fill-rule:nonzero;fill:rgb(0%,0%,0%);fill-opacity:1;" d="M 98.25 168.75 L 99 168.9375 Z M 98.25 168.75 "/>
<path style=" stroke:none;fill-rule:nonzero;fill:rgb(0%,0%,0%);fill-opacity:1;" d="M 257.4375 164.8125 L 257.625 165.5625 Z M 257.4375 164.8125 "/>
<path style=" stroke:none;fill-rule:nonzero;fill:rgb(0%,0%,0%);fill-opacity:1;" d="M 213 133.3125 L 213.1875 134.0625 Z M 213 133.3125 "/>
<path style=" stroke:none;fill-rule:nonzero;fill:rgb(0%,0%,0%);fill-opacity:1;" d="M 125.4375 200.8125 C 126 201 126 201 126 201 Z M 125.4375 200.8125 "/>
<path style=" stroke:none;fill-rule:nonzero;fill:rgb(32.941176%,32.941176%,32.54902%);fill-opacity:1;" d="M 194.8125 179.25 C 194.875 179.375 194.9375 179.496094 195 179.625 C 194.875 179.5625 194.753906 179.5 194.625 179.4375 C 194.6875 179.375 194.75 179.3125 194.8125 179.25 Z M 194.8125 179.25 "/>
<path style=" stroke:none;fill-rule:nonzero;fill:rgb(0%,0%,0%);fill-opacity:1;" d="M 256.3125 168 L 256.6875 168.1875 L 256.3125 168.375 Z M 256.3125 168 "/>
<path style=" stroke:none;fill-rule:nonzero;fill:rgb(0%,0%,0%);fill-opacity:1;" d="M 260.25 167.25 L 260.625 167.4375 L 260.25 167.625 Z M 260.25 167.25 "/>
<path style=" stroke:none;fill-rule:nonzero;fill:rgb(0%,0%,0%);fill-opacity:1;" d="M 217.3125 126.375 C 217.875 126.5625 217.875 126.5625 217.875 126.5625 Z M 217.3125 126.375 "/>
</g>
</svg>
